<mxfile host="app.diagrams.net" agent="Mozilla/5.0 (Windows NT 10.0; Win64; x64) AppleWebKit/537.36 (KHTML, like Gecko) Chrome/132.0.0.0 Safari/537.36" version="26.0.11">
  <diagram name="Page-1" id="1eU_khXiTEh37MQCyq2c">
    <mxGraphModel dx="3206" dy="1674" grid="0" gridSize="10" guides="1" tooltips="1" connect="1" arrows="1" fold="1" page="1" pageScale="1" pageWidth="1100" pageHeight="850" math="0" shadow="0">
      <root>
        <mxCell id="0" />
        <mxCell id="1" parent="0" />
        <mxCell id="WD1xmV7lFWjB1FPlFZ5V-3" value="bookings" style="whiteSpace=wrap;html=1;align=center;" parent="1" vertex="1">
          <mxGeometry x="176" y="180" width="100" height="40" as="geometry" />
        </mxCell>
        <mxCell id="WD1xmV7lFWjB1FPlFZ5V-4" value="booking_id" style="ellipse;whiteSpace=wrap;html=1;align=center;" parent="1" vertex="1">
          <mxGeometry x="120" y="115" width="80" height="29" as="geometry" />
        </mxCell>
        <mxCell id="WD1xmV7lFWjB1FPlFZ5V-5" value="service_id" style="ellipse;whiteSpace=wrap;html=1;align=center;" parent="1" vertex="1">
          <mxGeometry x="203" y="129" width="79" height="29" as="geometry" />
        </mxCell>
        <mxCell id="WD1xmV7lFWjB1FPlFZ5V-7" value="transfer_id" style="ellipse;whiteSpace=wrap;html=1;align=center;" parent="1" vertex="1">
          <mxGeometry x="138" y="268" width="87" height="39" as="geometry" />
        </mxCell>
        <mxCell id="WD1xmV7lFWjB1FPlFZ5V-8" value="flight_id" style="ellipse;whiteSpace=wrap;html=1;align=center;" parent="1" vertex="1">
          <mxGeometry x="41" y="171" width="84" height="29" as="geometry" />
        </mxCell>
        <mxCell id="WD1xmV7lFWjB1FPlFZ5V-9" value="booking_date" style="ellipse;whiteSpace=wrap;html=1;align=center;" parent="1" vertex="1">
          <mxGeometry x="302.5" y="171" width="80" height="37" as="geometry" />
        </mxCell>
        <mxCell id="WD1xmV7lFWjB1FPlFZ5V-10" value="total" style="ellipse;whiteSpace=wrap;html=1;align=center;" parent="1" vertex="1">
          <mxGeometry x="302.5" y="220" width="73" height="37" as="geometry" />
        </mxCell>
        <mxCell id="WD1xmV7lFWjB1FPlFZ5V-11" value="customer_id" style="ellipse;whiteSpace=wrap;html=1;align=center;" parent="1" vertex="1">
          <mxGeometry x="57" y="239" width="81" height="33" as="geometry" />
        </mxCell>
        <mxCell id="WD1xmV7lFWjB1FPlFZ5V-14" value="" style="endArrow=none;html=1;rounded=0;" parent="1" edge="1">
          <mxGeometry width="50" height="50" relative="1" as="geometry">
            <mxPoint x="212" y="181" as="sourcePoint" />
            <mxPoint x="236" y="158" as="targetPoint" />
            <Array as="points">
              <mxPoint x="232" y="161" />
            </Array>
          </mxGeometry>
        </mxCell>
        <mxCell id="WD1xmV7lFWjB1FPlFZ5V-15" value="" style="endArrow=none;html=1;rounded=0;exitX=0.971;exitY=0.152;exitDx=0;exitDy=0;exitPerimeter=0;" parent="1" source="WD1xmV7lFWjB1FPlFZ5V-11" edge="1">
          <mxGeometry width="50" height="50" relative="1" as="geometry">
            <mxPoint x="140.5279805139794" y="254.68253836454005" as="sourcePoint" />
            <mxPoint x="176" y="208" as="targetPoint" />
            <Array as="points">
              <mxPoint x="172" y="211" />
            </Array>
          </mxGeometry>
        </mxCell>
        <mxCell id="WD1xmV7lFWjB1FPlFZ5V-19" value="" style="endArrow=none;html=1;rounded=0;entryX=0;entryY=0.5;entryDx=0;entryDy=0;" parent="1" edge="1" target="WD1xmV7lFWjB1FPlFZ5V-9">
          <mxGeometry width="50" height="50" relative="1" as="geometry">
            <mxPoint x="277" y="203" as="sourcePoint" />
            <mxPoint x="301" y="180" as="targetPoint" />
            <Array as="points" />
          </mxGeometry>
        </mxCell>
        <mxCell id="WD1xmV7lFWjB1FPlFZ5V-20" value="" style="endArrow=none;html=1;rounded=0;entryX=0;entryY=0.25;entryDx=0;entryDy=0;" parent="1" target="WD1xmV7lFWjB1FPlFZ5V-3" edge="1">
          <mxGeometry width="50" height="50" relative="1" as="geometry">
            <mxPoint x="126" y="185" as="sourcePoint" />
            <mxPoint x="176" y="180" as="targetPoint" />
            <Array as="points">
              <mxPoint x="179" y="191" />
            </Array>
          </mxGeometry>
        </mxCell>
        <mxCell id="WD1xmV7lFWjB1FPlFZ5V-21" value="" style="endArrow=none;html=1;rounded=0;exitX=1;exitY=1;exitDx=0;exitDy=0;entryX=0;entryY=0;entryDx=0;entryDy=0;" parent="1" source="WD1xmV7lFWjB1FPlFZ5V-3" edge="1" target="WD1xmV7lFWjB1FPlFZ5V-10">
          <mxGeometry width="50" height="50" relative="1" as="geometry">
            <mxPoint x="282" y="236" as="sourcePoint" />
            <mxPoint x="306" y="213" as="targetPoint" />
            <Array as="points" />
          </mxGeometry>
        </mxCell>
        <mxCell id="WD1xmV7lFWjB1FPlFZ5V-22" value="" style="endArrow=none;html=1;rounded=0;entryX=0.6;entryY=0.931;entryDx=0;entryDy=0;entryPerimeter=0;exitX=0.14;exitY=0.017;exitDx=0;exitDy=0;exitPerimeter=0;" parent="1" source="WD1xmV7lFWjB1FPlFZ5V-3" target="WD1xmV7lFWjB1FPlFZ5V-4" edge="1">
          <mxGeometry width="50" height="50" relative="1" as="geometry">
            <mxPoint x="170" y="186" as="sourcePoint" />
            <mxPoint x="194" y="163" as="targetPoint" />
            <Array as="points" />
          </mxGeometry>
        </mxCell>
        <mxCell id="WD1xmV7lFWjB1FPlFZ5V-23" value="customers" style="whiteSpace=wrap;html=1;align=center;" parent="1" vertex="1">
          <mxGeometry x="586" y="192" width="100" height="40" as="geometry" />
        </mxCell>
        <mxCell id="WD1xmV7lFWjB1FPlFZ5V-24" value="password_hash" style="ellipse;whiteSpace=wrap;html=1;align=center;" parent="1" vertex="1">
          <mxGeometry x="517" y="262" width="94" height="45" as="geometry" />
        </mxCell>
        <mxCell id="WD1xmV7lFWjB1FPlFZ5V-25" value="loyalty_points" style="ellipse;whiteSpace=wrap;html=1;align=center;" parent="1" vertex="1">
          <mxGeometry x="611" y="123.5" width="97" height="46" as="geometry" />
        </mxCell>
        <mxCell id="WD1xmV7lFWjB1FPlFZ5V-26" value="customer_id" style="ellipse;whiteSpace=wrap;html=1;align=center;" parent="1" vertex="1">
          <mxGeometry x="517" y="132" width="72" height="35" as="geometry" />
        </mxCell>
        <mxCell id="WD1xmV7lFWjB1FPlFZ5V-27" value="role_id" style="ellipse;whiteSpace=wrap;html=1;align=center;" parent="1" vertex="1">
          <mxGeometry x="481" y="197" width="74" height="35" as="geometry" />
        </mxCell>
        <mxCell id="WD1xmV7lFWjB1FPlFZ5V-29" value="customer_email" style="ellipse;whiteSpace=wrap;html=1;align=center;" parent="1" vertex="1">
          <mxGeometry x="652.5" y="275" width="96" height="39" as="geometry" />
        </mxCell>
        <mxCell id="WD1xmV7lFWjB1FPlFZ5V-30" value="customer_surname" style="ellipse;whiteSpace=wrap;html=1;align=center;" parent="1" vertex="1">
          <mxGeometry x="717" y="239" width="120" height="31" as="geometry" />
        </mxCell>
        <mxCell id="WD1xmV7lFWjB1FPlFZ5V-31" value="customer_name" style="ellipse;whiteSpace=wrap;html=1;align=center;" parent="1" vertex="1">
          <mxGeometry x="717" y="181" width="98" height="38" as="geometry" />
        </mxCell>
        <mxCell id="WD1xmV7lFWjB1FPlFZ5V-32" value="" style="endArrow=none;html=1;rounded=0;entryX=0.25;entryY=1;entryDx=0;entryDy=0;" parent="1" target="WD1xmV7lFWjB1FPlFZ5V-23" edge="1">
          <mxGeometry width="50" height="50" relative="1" as="geometry">
            <mxPoint x="577" y="262" as="sourcePoint" />
            <mxPoint x="601" y="239" as="targetPoint" />
            <Array as="points" />
          </mxGeometry>
        </mxCell>
        <mxCell id="WD1xmV7lFWjB1FPlFZ5V-33" value="" style="endArrow=none;html=1;rounded=0;" parent="1" edge="1">
          <mxGeometry width="50" height="50" relative="1" as="geometry">
            <mxPoint x="603" y="190" as="sourcePoint" />
            <mxPoint x="622" y="175" as="targetPoint" />
            <Array as="points">
              <mxPoint x="630" y="165" />
            </Array>
          </mxGeometry>
        </mxCell>
        <mxCell id="WD1xmV7lFWjB1FPlFZ5V-34" value="" style="endArrow=none;html=1;rounded=0;" parent="1" edge="1">
          <mxGeometry width="50" height="50" relative="1" as="geometry">
            <mxPoint x="554" y="220" as="sourcePoint" />
            <mxPoint x="585" y="214" as="targetPoint" />
            <Array as="points" />
          </mxGeometry>
        </mxCell>
        <mxCell id="WD1xmV7lFWjB1FPlFZ5V-35" value="" style="endArrow=none;html=1;rounded=0;exitX=0.401;exitY=0.06;exitDx=0;exitDy=0;exitPerimeter=0;" parent="1" edge="1" source="WD1xmV7lFWjB1FPlFZ5V-29">
          <mxGeometry width="50" height="50" relative="1" as="geometry">
            <mxPoint x="676.5" y="279" as="sourcePoint" />
            <mxPoint x="676.5" y="232" as="targetPoint" />
            <Array as="points">
              <mxPoint x="676.5" y="234" />
            </Array>
          </mxGeometry>
        </mxCell>
        <mxCell id="WD1xmV7lFWjB1FPlFZ5V-36" value="" style="endArrow=none;html=1;rounded=0;exitX=1;exitY=0.5;exitDx=0;exitDy=0;" parent="1" source="WD1xmV7lFWjB1FPlFZ5V-23" edge="1">
          <mxGeometry width="50" height="50" relative="1" as="geometry">
            <mxPoint x="686" y="225" as="sourcePoint" />
            <mxPoint x="710" y="208" as="targetPoint" />
            <Array as="points">
              <mxPoint x="720" y="208" />
            </Array>
          </mxGeometry>
        </mxCell>
        <mxCell id="WD1xmV7lFWjB1FPlFZ5V-38" value="" style="endArrow=none;html=1;rounded=0;exitX=0;exitY=0;exitDx=0;exitDy=0;" parent="1" source="WD1xmV7lFWjB1FPlFZ5V-23" edge="1">
          <mxGeometry width="50" height="50" relative="1" as="geometry">
            <mxPoint x="542" y="197" as="sourcePoint" />
            <mxPoint x="574" y="164" as="targetPoint" />
            <Array as="points">
              <mxPoint x="574" y="164" />
            </Array>
          </mxGeometry>
        </mxCell>
        <mxCell id="WD1xmV7lFWjB1FPlFZ5V-39" value="" style="endArrow=none;html=1;rounded=0;exitX=1;exitY=1;exitDx=0;exitDy=0;" parent="1" source="WD1xmV7lFWjB1FPlFZ5V-23" edge="1">
          <mxGeometry width="50" height="50" relative="1" as="geometry">
            <mxPoint x="686" y="284" as="sourcePoint" />
            <mxPoint x="707" y="241" as="targetPoint" />
            <Array as="points">
              <mxPoint x="718" y="251" />
            </Array>
          </mxGeometry>
        </mxCell>
        <mxCell id="WD1xmV7lFWjB1FPlFZ5V-40" value="roles" style="whiteSpace=wrap;html=1;align=center;" parent="1" vertex="1">
          <mxGeometry x="357" y="528" width="100" height="40" as="geometry" />
        </mxCell>
        <mxCell id="WD1xmV7lFWjB1FPlFZ5V-41" value="destinations" style="whiteSpace=wrap;html=1;align=center;" parent="1" vertex="1">
          <mxGeometry x="170" y="-41" width="100" height="41" as="geometry" />
        </mxCell>
        <mxCell id="WD1xmV7lFWjB1FPlFZ5V-42" value="customerLoyalty" style="whiteSpace=wrap;html=1;align=center;" parent="1" vertex="1">
          <mxGeometry x="604" y="915" width="100" height="40" as="geometry" />
        </mxCell>
        <mxCell id="WD1xmV7lFWjB1FPlFZ5V-43" value="accomodations" style="whiteSpace=wrap;html=1;align=center;" parent="1" vertex="1">
          <mxGeometry x="638" y="650" width="100" height="40" as="geometry" />
        </mxCell>
        <mxCell id="WD1xmV7lFWjB1FPlFZ5V-44" value="flights" style="whiteSpace=wrap;html=1;align=center;" parent="1" vertex="1">
          <mxGeometry x="580" y="-48" width="100" height="40" as="geometry" />
        </mxCell>
        <mxCell id="WD1xmV7lFWjB1FPlFZ5V-45" value="taxiTransfers" style="whiteSpace=wrap;html=1;align=center;" parent="1" vertex="1">
          <mxGeometry x="644" y="-273" width="100" height="40" as="geometry" />
        </mxCell>
        <mxCell id="WD1xmV7lFWjB1FPlFZ5V-46" value="bookingService" style="whiteSpace=wrap;html=1;align=center;" parent="1" vertex="1">
          <mxGeometry x="123" y="427" width="100" height="40" as="geometry" />
        </mxCell>
        <mxCell id="WD1xmV7lFWjB1FPlFZ5V-47" value="services" style="whiteSpace=wrap;html=1;align=center;" parent="1" vertex="1">
          <mxGeometry x="168" y="-281" width="100" height="40" as="geometry" />
        </mxCell>
        <mxCell id="WD1xmV7lFWjB1FPlFZ5V-48" value="promotions" style="whiteSpace=wrap;html=1;align=center;" parent="1" vertex="1">
          <mxGeometry x="125" y="634" width="100" height="40" as="geometry" />
        </mxCell>
        <mxCell id="WD1xmV7lFWjB1FPlFZ5V-49" value="holidayType" style="whiteSpace=wrap;html=1;align=center;" parent="1" vertex="1">
          <mxGeometry x="181" y="890" width="100" height="40" as="geometry" />
        </mxCell>
        <mxCell id="WD1xmV7lFWjB1FPlFZ5V-50" value="bookingPromotions" style="whiteSpace=wrap;html=1;align=center;" parent="1" vertex="1">
          <mxGeometry x="726" y="459" width="111" height="40" as="geometry" />
        </mxCell>
        <mxCell id="WD1xmV7lFWjB1FPlFZ5V-51" value="payments" style="whiteSpace=wrap;html=1;align=center;" parent="1" vertex="1">
          <mxGeometry x="357" y="-448" width="100" height="40" as="geometry" />
        </mxCell>
        <mxCell id="WD1xmV7lFWjB1FPlFZ5V-52" value="agencies" style="whiteSpace=wrap;html=1;align=center;" parent="1" vertex="1">
          <mxGeometry x="152" y="1096" width="100" height="40" as="geometry" />
        </mxCell>
        <mxCell id="WD1xmV7lFWjB1FPlFZ5V-56" value="region" style="ellipse;whiteSpace=wrap;html=1;align=center;" parent="1" vertex="1">
          <mxGeometry x="197" y="38" width="79" height="29" as="geometry" />
        </mxCell>
        <mxCell id="WD1xmV7lFWjB1FPlFZ5V-57" value="country" style="ellipse;whiteSpace=wrap;html=1;align=center;" parent="1" vertex="1">
          <mxGeometry x="58" y="-31" width="79" height="29" as="geometry" />
        </mxCell>
        <mxCell id="WD1xmV7lFWjB1FPlFZ5V-58" value="destination_address" style="ellipse;whiteSpace=wrap;html=1;align=center;" parent="1" vertex="1">
          <mxGeometry x="239" y="-108" width="132" height="40" as="geometry" />
        </mxCell>
        <mxCell id="WD1xmV7lFWjB1FPlFZ5V-59" value="destination_id" style="ellipse;whiteSpace=wrap;html=1;align=center;" parent="1" vertex="1">
          <mxGeometry x="120" y="-94" width="89" height="35" as="geometry" />
        </mxCell>
        <mxCell id="WD1xmV7lFWjB1FPlFZ5V-60" style="edgeStyle=orthogonalEdgeStyle;rounded=0;orthogonalLoop=1;jettySize=auto;html=1;exitX=0.5;exitY=1;exitDx=0;exitDy=0;" parent="1" source="WD1xmV7lFWjB1FPlFZ5V-59" target="WD1xmV7lFWjB1FPlFZ5V-59" edge="1">
          <mxGeometry relative="1" as="geometry" />
        </mxCell>
        <mxCell id="WD1xmV7lFWjB1FPlFZ5V-61" value="" style="endArrow=none;html=1;rounded=0;entryX=0.25;entryY=1;entryDx=0;entryDy=0;" parent="1" edge="1">
          <mxGeometry width="50" height="50" relative="1" as="geometry">
            <mxPoint x="252" y="-41" as="sourcePoint" />
            <mxPoint x="286" y="-71" as="targetPoint" />
            <Array as="points" />
          </mxGeometry>
        </mxCell>
        <mxCell id="WD1xmV7lFWjB1FPlFZ5V-62" value="" style="endArrow=none;html=1;rounded=0;entryX=0.643;entryY=0.967;entryDx=0;entryDy=0;exitX=0.422;exitY=0.046;exitDx=0;exitDy=0;entryPerimeter=0;exitPerimeter=0;" parent="1" source="WD1xmV7lFWjB1FPlFZ5V-56" edge="1" target="WD1xmV7lFWjB1FPlFZ5V-41">
          <mxGeometry width="50" height="50" relative="1" as="geometry">
            <mxPoint x="220" y="29.75" as="sourcePoint" />
            <mxPoint x="257" y="29" as="targetPoint" />
            <Array as="points" />
          </mxGeometry>
        </mxCell>
        <mxCell id="WD1xmV7lFWjB1FPlFZ5V-63" value="" style="endArrow=none;html=1;rounded=0;" parent="1" edge="1">
          <mxGeometry width="50" height="50" relative="1" as="geometry">
            <mxPoint x="137" y="-17" as="sourcePoint" />
            <mxPoint x="169" y="-20" as="targetPoint" />
            <Array as="points" />
          </mxGeometry>
        </mxCell>
        <mxCell id="WD1xmV7lFWjB1FPlFZ5V-64" value="" style="endArrow=none;html=1;rounded=0;entryX=0.25;entryY=1;entryDx=0;entryDy=0;exitX=0.173;exitY=0.041;exitDx=0;exitDy=0;exitPerimeter=0;" parent="1" source="WD1xmV7lFWjB1FPlFZ5V-41" edge="1">
          <mxGeometry width="50" height="50" relative="1" as="geometry">
            <mxPoint x="188" y="-47" as="sourcePoint" />
            <mxPoint x="188" y="-61" as="targetPoint" />
            <Array as="points" />
          </mxGeometry>
        </mxCell>
        <mxCell id="WD1xmV7lFWjB1FPlFZ5V-65" value="flight_id" style="ellipse;whiteSpace=wrap;html=1;align=center;" parent="1" vertex="1">
          <mxGeometry x="478.5" y="-108" width="79" height="29" as="geometry" />
        </mxCell>
        <mxCell id="WD1xmV7lFWjB1FPlFZ5V-66" value="flight_origin" style="ellipse;whiteSpace=wrap;html=1;align=center;" parent="1" vertex="1">
          <mxGeometry x="537" y="29" width="79" height="29" as="geometry" />
        </mxCell>
        <mxCell id="WD1xmV7lFWjB1FPlFZ5V-67" value="arrival_time" style="ellipse;whiteSpace=wrap;html=1;align=center;" parent="1" vertex="1">
          <mxGeometry x="638" y="26" width="88" height="32" as="geometry" />
        </mxCell>
        <mxCell id="WD1xmV7lFWjB1FPlFZ5V-68" value="departure_time" style="ellipse;whiteSpace=wrap;html=1;align=center;" parent="1" vertex="1">
          <mxGeometry x="730" y="-3" width="86" height="32" as="geometry" />
        </mxCell>
        <mxCell id="WD1xmV7lFWjB1FPlFZ5V-69" value="capacity" style="ellipse;whiteSpace=wrap;html=1;align=center;" parent="1" vertex="1">
          <mxGeometry x="737.5" y="-45" width="79" height="29" as="geometry" />
        </mxCell>
        <mxCell id="WD1xmV7lFWjB1FPlFZ5V-70" value="seat_class" style="ellipse;whiteSpace=wrap;html=1;align=center;" parent="1" vertex="1">
          <mxGeometry x="469" y="-16" width="79" height="29" as="geometry" />
        </mxCell>
        <mxCell id="WD1xmV7lFWjB1FPlFZ5V-71" value="price" style="ellipse;whiteSpace=wrap;html=1;align=center;" parent="1" vertex="1">
          <mxGeometry x="699" y="-91" width="79" height="29" as="geometry" />
        </mxCell>
        <mxCell id="WD1xmV7lFWjB1FPlFZ5V-72" value="airline" style="ellipse;whiteSpace=wrap;html=1;align=center;" parent="1" vertex="1">
          <mxGeometry x="590.5" y="-115" width="79" height="29" as="geometry" />
        </mxCell>
        <mxCell id="WD1xmV7lFWjB1FPlFZ5V-73" value="destination_id" style="ellipse;whiteSpace=wrap;html=1;align=center;" parent="1" vertex="1">
          <mxGeometry x="453" y="-62" width="91" height="29" as="geometry" />
        </mxCell>
        <mxCell id="WD1xmV7lFWjB1FPlFZ5V-74" value="" style="endArrow=none;html=1;rounded=0;entryX=0.25;entryY=1;entryDx=0;entryDy=0;exitX=1;exitY=0.75;exitDx=0;exitDy=0;" parent="1" edge="1">
          <mxGeometry width="50" height="50" relative="1" as="geometry">
            <mxPoint x="543" y="-7" as="sourcePoint" />
            <mxPoint x="580" y="-8" as="targetPoint" />
            <Array as="points" />
          </mxGeometry>
        </mxCell>
        <mxCell id="WD1xmV7lFWjB1FPlFZ5V-76" value="" style="endArrow=none;html=1;rounded=0;entryX=0;entryY=0.25;entryDx=0;entryDy=0;exitX=1;exitY=0.75;exitDx=0;exitDy=0;" parent="1" target="WD1xmV7lFWjB1FPlFZ5V-44" edge="1">
          <mxGeometry width="50" height="50" relative="1" as="geometry">
            <mxPoint x="534.5" y="-40" as="sourcePoint" />
            <mxPoint x="571.5" y="-41" as="targetPoint" />
            <Array as="points" />
          </mxGeometry>
        </mxCell>
        <mxCell id="WD1xmV7lFWjB1FPlFZ5V-77" value="" style="endArrow=none;html=1;rounded=0;exitX=1;exitY=0.75;exitDx=0;exitDy=0;entryX=0;entryY=0;entryDx=0;entryDy=0;" parent="1" target="WD1xmV7lFWjB1FPlFZ5V-44" edge="1">
          <mxGeometry width="50" height="50" relative="1" as="geometry">
            <mxPoint x="543" y="-83" as="sourcePoint" />
            <mxPoint x="579" y="-55" as="targetPoint" />
            <Array as="points" />
          </mxGeometry>
        </mxCell>
        <mxCell id="WD1xmV7lFWjB1FPlFZ5V-78" value="" style="endArrow=none;html=1;rounded=0;entryX=0.5;entryY=0;entryDx=0;entryDy=0;exitX=1;exitY=0.75;exitDx=0;exitDy=0;" parent="1" target="WD1xmV7lFWjB1FPlFZ5V-44" edge="1">
          <mxGeometry width="50" height="50" relative="1" as="geometry">
            <mxPoint x="629" y="-85" as="sourcePoint" />
            <mxPoint x="666" y="-86" as="targetPoint" />
            <Array as="points" />
          </mxGeometry>
        </mxCell>
        <mxCell id="WD1xmV7lFWjB1FPlFZ5V-79" value="" style="endArrow=none;html=1;rounded=0;entryX=0.329;entryY=1;entryDx=0;entryDy=0;exitX=1;exitY=0;exitDx=0;exitDy=0;entryPerimeter=0;" parent="1" source="WD1xmV7lFWjB1FPlFZ5V-44" target="WD1xmV7lFWjB1FPlFZ5V-71" edge="1">
          <mxGeometry width="50" height="50" relative="1" as="geometry">
            <mxPoint x="683" y="-61" as="sourcePoint" />
            <mxPoint x="720" y="-62" as="targetPoint" />
            <Array as="points" />
          </mxGeometry>
        </mxCell>
        <mxCell id="WD1xmV7lFWjB1FPlFZ5V-80" value="" style="endArrow=none;html=1;rounded=0;entryX=0.25;entryY=1;entryDx=0;entryDy=0;exitX=1;exitY=0.5;exitDx=0;exitDy=0;" parent="1" source="WD1xmV7lFWjB1FPlFZ5V-44" edge="1">
          <mxGeometry width="50" height="50" relative="1" as="geometry">
            <mxPoint x="703" y="-26" as="sourcePoint" />
            <mxPoint x="740" y="-27" as="targetPoint" />
            <Array as="points" />
          </mxGeometry>
        </mxCell>
        <mxCell id="WD1xmV7lFWjB1FPlFZ5V-81" value="" style="endArrow=none;html=1;rounded=0;entryX=0.25;entryY=1;entryDx=0;entryDy=0;exitX=1;exitY=1;exitDx=0;exitDy=0;" parent="1" source="WD1xmV7lFWjB1FPlFZ5V-44" edge="1">
          <mxGeometry width="50" height="50" relative="1" as="geometry">
            <mxPoint x="693" y="13" as="sourcePoint" />
            <mxPoint x="730" y="12" as="targetPoint" />
            <Array as="points" />
          </mxGeometry>
        </mxCell>
        <mxCell id="WD1xmV7lFWjB1FPlFZ5V-82" value="" style="endArrow=none;html=1;rounded=0;entryX=0.523;entryY=0.031;entryDx=0;entryDy=0;exitX=0.647;exitY=1;exitDx=0;exitDy=0;exitPerimeter=0;entryPerimeter=0;" parent="1" source="WD1xmV7lFWjB1FPlFZ5V-44" target="WD1xmV7lFWjB1FPlFZ5V-67" edge="1">
          <mxGeometry width="50" height="50" relative="1" as="geometry">
            <mxPoint x="641" y="24" as="sourcePoint" />
            <mxPoint x="678" y="23" as="targetPoint" />
            <Array as="points" />
          </mxGeometry>
        </mxCell>
        <mxCell id="WD1xmV7lFWjB1FPlFZ5V-83" value="" style="endArrow=none;html=1;rounded=0;entryX=0.25;entryY=1;entryDx=0;entryDy=0;exitX=1;exitY=0.75;exitDx=0;exitDy=0;" parent="1" target="WD1xmV7lFWjB1FPlFZ5V-44" edge="1">
          <mxGeometry width="50" height="50" relative="1" as="geometry">
            <mxPoint x="574" y="29" as="sourcePoint" />
            <mxPoint x="611" y="28" as="targetPoint" />
            <Array as="points" />
          </mxGeometry>
        </mxCell>
        <mxCell id="WD1xmV7lFWjB1FPlFZ5V-84" value="service_id" style="ellipse;whiteSpace=wrap;html=1;align=center;" parent="1" vertex="1">
          <mxGeometry x="13" y="463" width="87" height="39" as="geometry" />
        </mxCell>
        <mxCell id="WD1xmV7lFWjB1FPlFZ5V-86" value="booking_id" style="ellipse;whiteSpace=wrap;html=1;align=center;" parent="1" vertex="1">
          <mxGeometry x="32" y="366" width="87" height="39" as="geometry" />
        </mxCell>
        <mxCell id="WD1xmV7lFWjB1FPlFZ5V-89" value="role_name" style="ellipse;whiteSpace=wrap;html=1;align=center;" parent="1" vertex="1">
          <mxGeometry x="502" y="528.5" width="87" height="39" as="geometry" />
        </mxCell>
        <mxCell id="WD1xmV7lFWjB1FPlFZ5V-91" value="role_id" style="ellipse;whiteSpace=wrap;html=1;align=center;" parent="1" vertex="1">
          <mxGeometry x="360" y="463" width="87" height="39" as="geometry" />
        </mxCell>
        <mxCell id="WD1xmV7lFWjB1FPlFZ5V-92" value="" style="endArrow=none;html=1;rounded=0;entryX=0.25;entryY=1;entryDx=0;entryDy=0;exitX=0.25;exitY=0;exitDx=0;exitDy=0;" parent="1" source="WD1xmV7lFWjB1FPlFZ5V-40" edge="1">
          <mxGeometry width="50" height="50" relative="1" as="geometry">
            <mxPoint x="379" y="532" as="sourcePoint" />
            <mxPoint x="408" y="502" as="targetPoint" />
            <Array as="points">
              <mxPoint x="393" y="518" />
            </Array>
          </mxGeometry>
        </mxCell>
        <mxCell id="WD1xmV7lFWjB1FPlFZ5V-93" value="" style="endArrow=none;html=1;rounded=0;entryX=0.25;entryY=1;entryDx=0;entryDy=0;exitX=1;exitY=0.5;exitDx=0;exitDy=0;" parent="1" source="WD1xmV7lFWjB1FPlFZ5V-40" edge="1">
          <mxGeometry width="50" height="50" relative="1" as="geometry">
            <mxPoint x="473" y="578" as="sourcePoint" />
            <mxPoint x="502" y="548" as="targetPoint" />
            <Array as="points" />
          </mxGeometry>
        </mxCell>
        <mxCell id="WD1xmV7lFWjB1FPlFZ5V-94" value="service_id" style="ellipse;whiteSpace=wrap;html=1;align=center;" parent="1" vertex="1">
          <mxGeometry x="179" y="-344" width="89" height="35" as="geometry" />
        </mxCell>
        <mxCell id="WD1xmV7lFWjB1FPlFZ5V-95" value="price" style="ellipse;whiteSpace=wrap;html=1;align=center;" parent="1" vertex="1">
          <mxGeometry x="44" y="-285" width="89" height="35" as="geometry" />
        </mxCell>
        <mxCell id="WD1xmV7lFWjB1FPlFZ5V-96" value="service_name" style="ellipse;whiteSpace=wrap;html=1;align=center;" parent="1" vertex="1">
          <mxGeometry x="294.5" y="-276" width="89" height="35" as="geometry" />
        </mxCell>
        <mxCell id="WD1xmV7lFWjB1FPlFZ5V-97" value="special_request" style="ellipse;whiteSpace=wrap;html=1;align=center;" parent="1" vertex="1">
          <mxGeometry x="568" y="-199" width="89" height="35" as="geometry" />
        </mxCell>
        <mxCell id="WD1xmV7lFWjB1FPlFZ5V-98" value="transfer_id" style="ellipse;whiteSpace=wrap;html=1;align=center;" parent="1" vertex="1">
          <mxGeometry x="736" y="-216" width="89" height="35" as="geometry" />
        </mxCell>
        <mxCell id="WD1xmV7lFWjB1FPlFZ5V-99" value="transfer_type" style="ellipse;whiteSpace=wrap;html=1;align=center;" parent="1" vertex="1">
          <mxGeometry x="787" y="-281" width="89" height="35" as="geometry" />
        </mxCell>
        <mxCell id="WD1xmV7lFWjB1FPlFZ5V-100" value="destination_id" style="ellipse;whiteSpace=wrap;html=1;align=center;" parent="1" vertex="1">
          <mxGeometry x="647" y="-335" width="89" height="35" as="geometry" />
        </mxCell>
        <mxCell id="WD1xmV7lFWjB1FPlFZ5V-101" value="payment_method" style="ellipse;whiteSpace=wrap;html=1;align=center;" parent="1" vertex="1">
          <mxGeometry x="447" y="-395" width="103" height="39" as="geometry" />
        </mxCell>
        <mxCell id="WD1xmV7lFWjB1FPlFZ5V-102" value="payment_date" style="ellipse;whiteSpace=wrap;html=1;align=center;" parent="1" vertex="1">
          <mxGeometry x="443" y="-524" width="89" height="35" as="geometry" />
        </mxCell>
        <mxCell id="WD1xmV7lFWjB1FPlFZ5V-103" value="payment_id" style="ellipse;whiteSpace=wrap;html=1;align=center;" parent="1" vertex="1">
          <mxGeometry x="313" y="-524" width="89" height="35" as="geometry" />
        </mxCell>
        <mxCell id="WD1xmV7lFWjB1FPlFZ5V-104" value="amount" style="ellipse;whiteSpace=wrap;html=1;align=center;" parent="1" vertex="1">
          <mxGeometry x="239" y="-448" width="89" height="35" as="geometry" />
        </mxCell>
        <mxCell id="WD1xmV7lFWjB1FPlFZ5V-105" value="booking_id" style="ellipse;whiteSpace=wrap;html=1;align=center;" parent="1" vertex="1">
          <mxGeometry x="505" y="-448" width="89" height="35" as="geometry" />
        </mxCell>
        <mxCell id="WD1xmV7lFWjB1FPlFZ5V-106" value="" style="endArrow=none;html=1;rounded=0;exitX=1;exitY=0.75;exitDx=0;exitDy=0;entryX=0;entryY=0.5;entryDx=0;entryDy=0;" parent="1" target="WD1xmV7lFWjB1FPlFZ5V-47" edge="1">
          <mxGeometry width="50" height="50" relative="1" as="geometry">
            <mxPoint x="133" y="-266" as="sourcePoint" />
            <mxPoint x="170" y="-231" as="targetPoint" />
            <Array as="points" />
          </mxGeometry>
        </mxCell>
        <mxCell id="WD1xmV7lFWjB1FPlFZ5V-107" value="" style="endArrow=none;html=1;rounded=0;exitX=1;exitY=0.75;exitDx=0;exitDy=0;entryX=0.5;entryY=0;entryDx=0;entryDy=0;" parent="1" target="WD1xmV7lFWjB1FPlFZ5V-47" edge="1">
          <mxGeometry width="50" height="50" relative="1" as="geometry">
            <mxPoint x="217" y="-309" as="sourcePoint" />
            <mxPoint x="252" y="-304" as="targetPoint" />
            <Array as="points" />
          </mxGeometry>
        </mxCell>
        <mxCell id="WD1xmV7lFWjB1FPlFZ5V-108" value="" style="endArrow=none;html=1;rounded=0;entryX=0;entryY=0.5;entryDx=0;entryDy=0;exitX=1;exitY=0.5;exitDx=0;exitDy=0;" parent="1" source="WD1xmV7lFWjB1FPlFZ5V-47" edge="1">
          <mxGeometry width="50" height="50" relative="1" as="geometry">
            <mxPoint x="270" y="-257" as="sourcePoint" />
            <mxPoint x="294.5" y="-257" as="targetPoint" />
            <Array as="points" />
          </mxGeometry>
        </mxCell>
        <mxCell id="WD1xmV7lFWjB1FPlFZ5V-109" value="" style="endArrow=none;html=1;rounded=0;exitX=1;exitY=0.75;exitDx=0;exitDy=0;" parent="1" edge="1">
          <mxGeometry width="50" height="50" relative="1" as="geometry">
            <mxPoint x="691" y="-299" as="sourcePoint" />
            <mxPoint x="691.5" y="-273" as="targetPoint" />
            <Array as="points" />
          </mxGeometry>
        </mxCell>
        <mxCell id="WD1xmV7lFWjB1FPlFZ5V-110" value="" style="endArrow=none;html=1;rounded=0;exitX=0.363;exitY=1.008;exitDx=0;exitDy=0;entryX=1;entryY=0.5;entryDx=0;entryDy=0;exitPerimeter=0;" parent="1" edge="1" source="WD1xmV7lFWjB1FPlFZ5V-45">
          <mxGeometry width="50" height="50" relative="1" as="geometry">
            <mxPoint x="686" y="-209" as="sourcePoint" />
            <mxPoint x="625" y="-199" as="targetPoint" />
            <Array as="points" />
          </mxGeometry>
        </mxCell>
        <mxCell id="WD1xmV7lFWjB1FPlFZ5V-111" value="" style="endArrow=none;html=1;rounded=0;exitX=1;exitY=1;exitDx=0;exitDy=0;entryX=0;entryY=0.5;entryDx=0;entryDy=0;" parent="1" edge="1" target="WD1xmV7lFWjB1FPlFZ5V-99">
          <mxGeometry width="50" height="50" relative="1" as="geometry">
            <mxPoint x="744" y="-260" as="sourcePoint" />
            <mxPoint x="784.5" y="-230" as="targetPoint" />
            <Array as="points" />
          </mxGeometry>
        </mxCell>
        <mxCell id="WD1xmV7lFWjB1FPlFZ5V-112" value="" style="endArrow=none;html=1;rounded=0;exitX=1;exitY=0.75;exitDx=0;exitDy=0;" parent="1" edge="1">
          <mxGeometry width="50" height="50" relative="1" as="geometry">
            <mxPoint x="744" y="-233" as="sourcePoint" />
            <mxPoint x="771" y="-215" as="targetPoint" />
            <Array as="points" />
          </mxGeometry>
        </mxCell>
        <mxCell id="WD1xmV7lFWjB1FPlFZ5V-114" value="" style="endArrow=none;html=1;rounded=0;exitX=1;exitY=0.75;exitDx=0;exitDy=0;entryX=0.35;entryY=0.145;entryDx=0;entryDy=0;entryPerimeter=0;" parent="1" target="WD1xmV7lFWjB1FPlFZ5V-101" edge="1">
          <mxGeometry width="50" height="50" relative="1" as="geometry">
            <mxPoint x="431" y="-410.5" as="sourcePoint" />
            <mxPoint x="431.5" y="-380.5" as="targetPoint" />
            <Array as="points" />
          </mxGeometry>
        </mxCell>
        <mxCell id="WD1xmV7lFWjB1FPlFZ5V-115" value="" style="endArrow=none;html=1;rounded=0;exitX=1;exitY=0.75;exitDx=0;exitDy=0;entryX=0.25;entryY=0;entryDx=0;entryDy=0;" parent="1" target="WD1xmV7lFWjB1FPlFZ5V-51" edge="1">
          <mxGeometry width="50" height="50" relative="1" as="geometry">
            <mxPoint x="375" y="-491" as="sourcePoint" />
            <mxPoint x="375.5" y="-461" as="targetPoint" />
            <Array as="points" />
          </mxGeometry>
        </mxCell>
        <mxCell id="WD1xmV7lFWjB1FPlFZ5V-116" value="" style="endArrow=none;html=1;rounded=0;exitX=1;exitY=0.75;exitDx=0;exitDy=0;entryX=1;entryY=0;entryDx=0;entryDy=0;" parent="1" target="WD1xmV7lFWjB1FPlFZ5V-51" edge="1">
          <mxGeometry width="50" height="50" relative="1" as="geometry">
            <mxPoint x="469" y="-492" as="sourcePoint" />
            <mxPoint x="469.5" y="-462" as="targetPoint" />
            <Array as="points" />
          </mxGeometry>
        </mxCell>
        <mxCell id="WD1xmV7lFWjB1FPlFZ5V-117" value="" style="endArrow=none;html=1;rounded=0;exitX=1;exitY=0.75;exitDx=0;exitDy=0;entryX=1;entryY=0.5;entryDx=0;entryDy=0;" parent="1" target="WD1xmV7lFWjB1FPlFZ5V-51" edge="1">
          <mxGeometry width="50" height="50" relative="1" as="geometry">
            <mxPoint x="505" y="-431" as="sourcePoint" />
            <mxPoint x="505.5" y="-401" as="targetPoint" />
            <Array as="points" />
          </mxGeometry>
        </mxCell>
        <mxCell id="WD1xmV7lFWjB1FPlFZ5V-118" value="" style="endArrow=none;html=1;rounded=0;exitX=1;exitY=0.75;exitDx=0;exitDy=0;entryX=0;entryY=0.5;entryDx=0;entryDy=0;" parent="1" target="WD1xmV7lFWjB1FPlFZ5V-51" edge="1">
          <mxGeometry width="50" height="50" relative="1" as="geometry">
            <mxPoint x="328" y="-430" as="sourcePoint" />
            <mxPoint x="328.5" y="-400" as="targetPoint" />
            <Array as="points" />
          </mxGeometry>
        </mxCell>
        <mxCell id="WD1xmV7lFWjB1FPlFZ5V-119" value="service_id" style="ellipse;whiteSpace=wrap;html=1;align=center;" parent="1" vertex="1">
          <mxGeometry x="677.5" y="358" width="87" height="39" as="geometry" />
        </mxCell>
        <mxCell id="WD1xmV7lFWjB1FPlFZ5V-120" value="service_id" style="ellipse;whiteSpace=wrap;html=1;align=center;" parent="1" vertex="1">
          <mxGeometry x="800" y="366" width="87" height="39" as="geometry" />
        </mxCell>
        <mxCell id="WD1xmV7lFWjB1FPlFZ5V-121" value="" style="endArrow=none;html=1;rounded=0;entryX=0.5;entryY=1;entryDx=0;entryDy=0;exitX=0;exitY=0;exitDx=0;exitDy=0;" parent="1" source="WD1xmV7lFWjB1FPlFZ5V-50" edge="1" target="WD1xmV7lFWjB1FPlFZ5V-119">
          <mxGeometry width="50" height="50" relative="1" as="geometry">
            <mxPoint x="629" y="431" as="sourcePoint" />
            <mxPoint x="657" y="402" as="targetPoint" />
            <Array as="points" />
          </mxGeometry>
        </mxCell>
        <mxCell id="WD1xmV7lFWjB1FPlFZ5V-122" value="" style="endArrow=none;html=1;rounded=0;entryX=0.5;entryY=1;entryDx=0;entryDy=0;exitX=1;exitY=0;exitDx=0;exitDy=0;" parent="1" source="WD1xmV7lFWjB1FPlFZ5V-50" edge="1" target="WD1xmV7lFWjB1FPlFZ5V-120">
          <mxGeometry width="50" height="50" relative="1" as="geometry">
            <mxPoint x="769" y="427" as="sourcePoint" />
            <mxPoint x="795" y="401" as="targetPoint" />
            <Array as="points" />
          </mxGeometry>
        </mxCell>
        <mxCell id="WD1xmV7lFWjB1FPlFZ5V-123" value="discount_percentage" style="ellipse;whiteSpace=wrap;html=1;align=center;" parent="1" vertex="1">
          <mxGeometry x="260" y="680" width="140" height="34" as="geometry" />
        </mxCell>
        <mxCell id="WD1xmV7lFWjB1FPlFZ5V-124" value="is_loyalty_exclusive" style="ellipse;whiteSpace=wrap;html=1;align=center;" parent="1" vertex="1">
          <mxGeometry x="128" y="702" width="115" height="52" as="geometry" />
        </mxCell>
        <mxCell id="WD1xmV7lFWjB1FPlFZ5V-125" value="end_date" style="ellipse;whiteSpace=wrap;html=1;align=center;" parent="1" vertex="1">
          <mxGeometry x="36" y="692.5" width="87" height="39" as="geometry" />
        </mxCell>
        <mxCell id="WD1xmV7lFWjB1FPlFZ5V-126" value="start_date" style="ellipse;whiteSpace=wrap;html=1;align=center;" parent="1" vertex="1">
          <mxGeometry x="19" y="613" width="87" height="39" as="geometry" />
        </mxCell>
        <mxCell id="WD1xmV7lFWjB1FPlFZ5V-127" value="promotion_name" style="ellipse;whiteSpace=wrap;html=1;align=center;" parent="1" vertex="1">
          <mxGeometry x="252" y="620" width="116" height="32" as="geometry" />
        </mxCell>
        <mxCell id="WD1xmV7lFWjB1FPlFZ5V-128" value="promotion_id" style="ellipse;whiteSpace=wrap;html=1;align=center;" parent="1" vertex="1">
          <mxGeometry x="131.5" y="569" width="87" height="39" as="geometry" />
        </mxCell>
        <mxCell id="WD1xmV7lFWjB1FPlFZ5V-129" value="" style="endArrow=none;html=1;rounded=0;entryX=0.07;entryY=0.967;entryDx=0;entryDy=0;exitX=1;exitY=0.5;exitDx=0;exitDy=0;entryPerimeter=0;" parent="1" target="WD1xmV7lFWjB1FPlFZ5V-48" edge="1">
          <mxGeometry width="50" height="50" relative="1" as="geometry">
            <mxPoint x="114" y="702" as="sourcePoint" />
            <mxPoint x="159" y="702" as="targetPoint" />
            <Array as="points" />
          </mxGeometry>
        </mxCell>
        <mxCell id="WD1xmV7lFWjB1FPlFZ5V-130" value="" style="endArrow=none;html=1;rounded=0;entryX=0.07;entryY=0.967;entryDx=0;entryDy=0;exitX=1;exitY=0.5;exitDx=0;exitDy=0;entryPerimeter=0;" parent="1" edge="1">
          <mxGeometry width="50" height="50" relative="1" as="geometry">
            <mxPoint x="150" y="637" as="sourcePoint" />
            <mxPoint x="168" y="608" as="targetPoint" />
            <Array as="points" />
          </mxGeometry>
        </mxCell>
        <mxCell id="WD1xmV7lFWjB1FPlFZ5V-131" value="" style="endArrow=none;html=1;rounded=0;entryX=0.07;entryY=0.967;entryDx=0;entryDy=0;exitX=1;exitY=0.5;exitDx=0;exitDy=0;entryPerimeter=0;" parent="1" source="WD1xmV7lFWjB1FPlFZ5V-48" edge="1">
          <mxGeometry width="50" height="50" relative="1" as="geometry">
            <mxPoint x="237.5" y="668.5" as="sourcePoint" />
            <mxPoint x="255.5" y="639.5" as="targetPoint" />
            <Array as="points" />
          </mxGeometry>
        </mxCell>
        <mxCell id="WD1xmV7lFWjB1FPlFZ5V-132" value="" style="endArrow=none;html=1;rounded=0;entryX=0.07;entryY=0.967;entryDx=0;entryDy=0;exitX=1;exitY=1;exitDx=0;exitDy=0;entryPerimeter=0;" parent="1" source="WD1xmV7lFWjB1FPlFZ5V-48" edge="1">
          <mxGeometry width="50" height="50" relative="1" as="geometry">
            <mxPoint x="242" y="721.5" as="sourcePoint" />
            <mxPoint x="260" y="692.5" as="targetPoint" />
            <Array as="points" />
          </mxGeometry>
        </mxCell>
        <mxCell id="WD1xmV7lFWjB1FPlFZ5V-133" value="" style="endArrow=none;html=1;rounded=0;entryX=0.07;entryY=0.967;entryDx=0;entryDy=0;exitX=1;exitY=0.5;exitDx=0;exitDy=0;entryPerimeter=0;" parent="1" edge="1">
          <mxGeometry width="50" height="50" relative="1" as="geometry">
            <mxPoint x="174" y="703" as="sourcePoint" />
            <mxPoint x="192" y="674" as="targetPoint" />
            <Array as="points" />
          </mxGeometry>
        </mxCell>
        <mxCell id="WD1xmV7lFWjB1FPlFZ5V-135" value="" style="endArrow=none;html=1;rounded=0;entryX=0.07;entryY=0.967;entryDx=0;entryDy=0;exitX=1;exitY=1;exitDx=0;exitDy=0;entryPerimeter=0;" parent="1" source="WD1xmV7lFWjB1FPlFZ5V-126" edge="1">
          <mxGeometry width="50" height="50" relative="1" as="geometry">
            <mxPoint x="107" y="674" as="sourcePoint" />
            <mxPoint x="125" y="645" as="targetPoint" />
            <Array as="points" />
          </mxGeometry>
        </mxCell>
        <mxCell id="WD1xmV7lFWjB1FPlFZ5V-136" value="amenities" style="ellipse;whiteSpace=wrap;html=1;align=center;" parent="1" vertex="1">
          <mxGeometry x="527" y="622" width="87" height="39" as="geometry" />
        </mxCell>
        <mxCell id="WD1xmV7lFWjB1FPlFZ5V-137" value="accomodation_name" style="ellipse;whiteSpace=wrap;html=1;align=center;" parent="1" vertex="1">
          <mxGeometry x="524" y="695" width="125" height="51" as="geometry" />
        </mxCell>
        <mxCell id="WD1xmV7lFWjB1FPlFZ5V-138" value="accomodation_id" style="ellipse;whiteSpace=wrap;html=1;align=center;" parent="1" vertex="1">
          <mxGeometry x="651" y="577.5" width="87" height="39" as="geometry" />
        </mxCell>
        <mxCell id="WD1xmV7lFWjB1FPlFZ5V-139" value="destination_id" style="ellipse;whiteSpace=wrap;html=1;align=center;" parent="1" vertex="1">
          <mxGeometry x="771" y="616.5" width="87" height="39" as="geometry" />
        </mxCell>
        <mxCell id="WD1xmV7lFWjB1FPlFZ5V-140" value="room_type" style="ellipse;whiteSpace=wrap;html=1;align=center;" parent="1" vertex="1">
          <mxGeometry x="775" y="702" width="87" height="39" as="geometry" />
        </mxCell>
        <mxCell id="WD1xmV7lFWjB1FPlFZ5V-141" value="price_per_night" style="ellipse;whiteSpace=wrap;html=1;align=center;" parent="1" vertex="1">
          <mxGeometry x="657" y="731.5" width="87" height="39" as="geometry" />
        </mxCell>
        <mxCell id="WD1xmV7lFWjB1FPlFZ5V-142" value="" style="endArrow=none;html=1;rounded=0;entryX=0.07;entryY=0.967;entryDx=0;entryDy=0;exitX=1;exitY=1;exitDx=0;exitDy=0;entryPerimeter=0;" parent="1" edge="1">
          <mxGeometry width="50" height="50" relative="1" as="geometry">
            <mxPoint x="225" y="674" as="sourcePoint" />
            <mxPoint x="260" y="692.5" as="targetPoint" />
            <Array as="points" />
          </mxGeometry>
        </mxCell>
        <mxCell id="WD1xmV7lFWjB1FPlFZ5V-143" value="" style="endArrow=none;html=1;rounded=0;entryX=0.25;entryY=1;entryDx=0;entryDy=0;exitX=1;exitY=1;exitDx=0;exitDy=0;" parent="1" target="WD1xmV7lFWjB1FPlFZ5V-43" edge="1">
          <mxGeometry width="50" height="50" relative="1" as="geometry">
            <mxPoint x="638" y="706" as="sourcePoint" />
            <mxPoint x="673" y="724.5" as="targetPoint" />
            <Array as="points" />
          </mxGeometry>
        </mxCell>
        <mxCell id="WD1xmV7lFWjB1FPlFZ5V-144" value="" style="endArrow=none;html=1;rounded=0;entryX=0.66;entryY=1.017;entryDx=0;entryDy=0;exitX=1;exitY=1;exitDx=0;exitDy=0;entryPerimeter=0;" parent="1" target="WD1xmV7lFWjB1FPlFZ5V-43" edge="1">
          <mxGeometry width="50" height="50" relative="1" as="geometry">
            <mxPoint x="692" y="731.5" as="sourcePoint" />
            <mxPoint x="717" y="715.5" as="targetPoint" />
            <Array as="points" />
          </mxGeometry>
        </mxCell>
        <mxCell id="WD1xmV7lFWjB1FPlFZ5V-145" value="" style="endArrow=none;html=1;rounded=0;entryX=0.25;entryY=1;entryDx=0;entryDy=0;exitX=1;exitY=1;exitDx=0;exitDy=0;" parent="1" source="WD1xmV7lFWjB1FPlFZ5V-43" edge="1">
          <mxGeometry width="50" height="50" relative="1" as="geometry">
            <mxPoint x="750" y="736" as="sourcePoint" />
            <mxPoint x="775" y="720" as="targetPoint" />
            <Array as="points" />
          </mxGeometry>
        </mxCell>
        <mxCell id="WD1xmV7lFWjB1FPlFZ5V-146" value="" style="endArrow=none;html=1;rounded=0;entryX=0.25;entryY=1;entryDx=0;entryDy=0;exitX=1;exitY=0.138;exitDx=0;exitDy=0;exitPerimeter=0;" parent="1" source="WD1xmV7lFWjB1FPlFZ5V-43" edge="1">
          <mxGeometry width="50" height="50" relative="1" as="geometry">
            <mxPoint x="746" y="655.5" as="sourcePoint" />
            <mxPoint x="771" y="639.5" as="targetPoint" />
            <Array as="points" />
          </mxGeometry>
        </mxCell>
        <mxCell id="WD1xmV7lFWjB1FPlFZ5V-147" value="" style="endArrow=none;html=1;rounded=0;entryX=0.25;entryY=1;entryDx=0;entryDy=0;exitX=0.58;exitY=0;exitDx=0;exitDy=0;exitPerimeter=0;" parent="1" source="WD1xmV7lFWjB1FPlFZ5V-43" edge="1">
          <mxGeometry width="50" height="50" relative="1" as="geometry">
            <mxPoint x="673.5" y="632.5" as="sourcePoint" />
            <mxPoint x="698.5" y="616.5" as="targetPoint" />
            <Array as="points" />
          </mxGeometry>
        </mxCell>
        <mxCell id="WD1xmV7lFWjB1FPlFZ5V-148" value="" style="endArrow=none;html=1;rounded=0;entryX=0.954;entryY=0.769;entryDx=0;entryDy=0;exitX=0;exitY=0.25;exitDx=0;exitDy=0;entryPerimeter=0;" parent="1" source="WD1xmV7lFWjB1FPlFZ5V-43" target="WD1xmV7lFWjB1FPlFZ5V-136" edge="1">
          <mxGeometry width="50" height="50" relative="1" as="geometry">
            <mxPoint x="597" y="668" as="sourcePoint" />
            <mxPoint x="622" y="652" as="targetPoint" />
            <Array as="points" />
          </mxGeometry>
        </mxCell>
        <mxCell id="WD1xmV7lFWjB1FPlFZ5V-149" value="holiday_type_id" style="ellipse;whiteSpace=wrap;html=1;align=center;" parent="1" vertex="1">
          <mxGeometry x="257" y="831" width="140" height="34" as="geometry" />
        </mxCell>
        <mxCell id="WD1xmV7lFWjB1FPlFZ5V-150" value="holiday_type_name" style="ellipse;whiteSpace=wrap;html=1;align=center;" parent="1" vertex="1">
          <mxGeometry x="22" y="831" width="140" height="34" as="geometry" />
        </mxCell>
        <mxCell id="WD1xmV7lFWjB1FPlFZ5V-152" value="" style="endArrow=none;html=1;rounded=0;entryX=0.66;entryY=1.017;entryDx=0;entryDy=0;exitX=0;exitY=0;exitDx=0;exitDy=0;entryPerimeter=0;" parent="1" source="WD1xmV7lFWjB1FPlFZ5V-49" edge="1">
          <mxGeometry width="50" height="50" relative="1" as="geometry">
            <mxPoint x="128" y="902.5" as="sourcePoint" />
            <mxPoint x="140" y="862" as="targetPoint" />
            <Array as="points" />
          </mxGeometry>
        </mxCell>
        <mxCell id="WD1xmV7lFWjB1FPlFZ5V-153" value="" style="endArrow=none;html=1;rounded=0;entryX=0.66;entryY=1.017;entryDx=0;entryDy=0;exitX=0.98;exitY=0.025;exitDx=0;exitDy=0;entryPerimeter=0;exitPerimeter=0;" parent="1" source="WD1xmV7lFWjB1FPlFZ5V-49" edge="1">
          <mxGeometry width="50" height="50" relative="1" as="geometry">
            <mxPoint x="281" y="902.5" as="sourcePoint" />
            <mxPoint x="293" y="862" as="targetPoint" />
            <Array as="points" />
          </mxGeometry>
        </mxCell>
        <mxCell id="WD1xmV7lFWjB1FPlFZ5V-154" value="points_redeemed" style="ellipse;whiteSpace=wrap;html=1;align=center;" parent="1" vertex="1">
          <mxGeometry x="546" y="988" width="140" height="34" as="geometry" />
        </mxCell>
        <mxCell id="WD1xmV7lFWjB1FPlFZ5V-155" value="points_earned" style="ellipse;whiteSpace=wrap;html=1;align=center;" parent="1" vertex="1">
          <mxGeometry x="544" y="856" width="140" height="34" as="geometry" />
        </mxCell>
        <mxCell id="WD1xmV7lFWjB1FPlFZ5V-156" value="loyalty_id" style="ellipse;whiteSpace=wrap;html=1;align=center;" parent="1" vertex="1">
          <mxGeometry x="720" y="971" width="140" height="34" as="geometry" />
        </mxCell>
        <mxCell id="WD1xmV7lFWjB1FPlFZ5V-157" value="customer_id" style="ellipse;whiteSpace=wrap;html=1;align=center;" parent="1" vertex="1">
          <mxGeometry x="718" y="865" width="140" height="34" as="geometry" />
        </mxCell>
        <mxCell id="WD1xmV7lFWjB1FPlFZ5V-158" value="" style="endArrow=none;html=1;rounded=0;entryX=0.08;entryY=1.025;entryDx=0;entryDy=0;exitX=0;exitY=0;exitDx=0;exitDy=0;entryPerimeter=0;" parent="1" target="WD1xmV7lFWjB1FPlFZ5V-42" edge="1">
          <mxGeometry width="50" height="50" relative="1" as="geometry">
            <mxPoint x="621" y="988" as="sourcePoint" />
            <mxPoint x="580" y="960" as="targetPoint" />
            <Array as="points" />
          </mxGeometry>
        </mxCell>
        <mxCell id="WD1xmV7lFWjB1FPlFZ5V-159" value="" style="endArrow=none;html=1;rounded=0;entryX=0.66;entryY=1.017;entryDx=0;entryDy=0;exitX=0.41;exitY=0;exitDx=0;exitDy=0;entryPerimeter=0;exitPerimeter=0;" parent="1" source="WD1xmV7lFWjB1FPlFZ5V-42" edge="1">
          <mxGeometry width="50" height="50" relative="1" as="geometry">
            <mxPoint x="657" y="918" as="sourcePoint" />
            <mxPoint x="616" y="890" as="targetPoint" />
            <Array as="points" />
          </mxGeometry>
        </mxCell>
        <mxCell id="WD1xmV7lFWjB1FPlFZ5V-160" value="" style="endArrow=none;html=1;rounded=0;entryX=0.66;entryY=1.017;entryDx=0;entryDy=0;exitX=1;exitY=0;exitDx=0;exitDy=0;entryPerimeter=0;" parent="1" source="WD1xmV7lFWjB1FPlFZ5V-42" edge="1">
          <mxGeometry width="50" height="50" relative="1" as="geometry">
            <mxPoint x="797.5" y="927" as="sourcePoint" />
            <mxPoint x="756.5" y="899" as="targetPoint" />
            <Array as="points" />
          </mxGeometry>
        </mxCell>
        <mxCell id="WD1xmV7lFWjB1FPlFZ5V-161" value="" style="endArrow=none;html=1;rounded=0;entryX=1;entryY=1;entryDx=0;entryDy=0;exitX=0;exitY=0;exitDx=0;exitDy=0;" parent="1" target="WD1xmV7lFWjB1FPlFZ5V-42" edge="1">
          <mxGeometry width="50" height="50" relative="1" as="geometry">
            <mxPoint x="767" y="973" as="sourcePoint" />
            <mxPoint x="726" y="945" as="targetPoint" />
            <Array as="points" />
          </mxGeometry>
        </mxCell>
        <mxCell id="WD1xmV7lFWjB1FPlFZ5V-162" value="agency_name" style="ellipse;whiteSpace=wrap;html=1;align=center;" parent="1" vertex="1">
          <mxGeometry x="290" y="1022" width="140" height="34" as="geometry" />
        </mxCell>
        <mxCell id="WD1xmV7lFWjB1FPlFZ5V-163" value="agency_phone_no" style="ellipse;whiteSpace=wrap;html=1;align=center;" parent="1" vertex="1">
          <mxGeometry x="-4" y="1060" width="140" height="34" as="geometry" />
        </mxCell>
        <mxCell id="WD1xmV7lFWjB1FPlFZ5V-164" value="agency_address" style="ellipse;whiteSpace=wrap;html=1;align=center;" parent="1" vertex="1">
          <mxGeometry x="9.5" y="1151" width="140" height="34" as="geometry" />
        </mxCell>
        <mxCell id="WD1xmV7lFWjB1FPlFZ5V-165" value="established_date" style="ellipse;whiteSpace=wrap;html=1;align=center;" parent="1" vertex="1">
          <mxGeometry x="136" y="1180" width="140" height="34" as="geometry" />
        </mxCell>
        <mxCell id="WD1xmV7lFWjB1FPlFZ5V-166" value="agency_service" style="ellipse;whiteSpace=wrap;html=1;align=center;" parent="1" vertex="1">
          <mxGeometry x="294.5" y="1172" width="140" height="34" as="geometry" />
        </mxCell>
        <mxCell id="WD1xmV7lFWjB1FPlFZ5V-167" value="agency_email" style="ellipse;whiteSpace=wrap;html=1;align=center;" parent="1" vertex="1">
          <mxGeometry x="286" y="1083" width="140" height="34" as="geometry" />
        </mxCell>
        <mxCell id="WD1xmV7lFWjB1FPlFZ5V-168" value="agent_id" style="ellipse;whiteSpace=wrap;html=1;align=center;" parent="1" vertex="1">
          <mxGeometry x="130" y="1018" width="140" height="34" as="geometry" />
        </mxCell>
        <mxCell id="WD1xmV7lFWjB1FPlFZ5V-169" value="" style="endArrow=none;html=1;rounded=0;entryX=0.66;entryY=1.017;entryDx=0;entryDy=0;exitX=0.407;exitY=0.05;exitDx=0;exitDy=0;entryPerimeter=0;exitPerimeter=0;" parent="1" source="WD1xmV7lFWjB1FPlFZ5V-52" edge="1">
          <mxGeometry width="50" height="50" relative="1" as="geometry">
            <mxPoint x="222.5" y="1080" as="sourcePoint" />
            <mxPoint x="181.5" y="1052" as="targetPoint" />
            <Array as="points" />
          </mxGeometry>
        </mxCell>
        <mxCell id="WD1xmV7lFWjB1FPlFZ5V-170" value="" style="endArrow=none;html=1;rounded=0;entryX=0.66;entryY=1.017;entryDx=0;entryDy=0;exitX=1;exitY=0;exitDx=0;exitDy=0;entryPerimeter=0;" parent="1" source="WD1xmV7lFWjB1FPlFZ5V-52" edge="1">
          <mxGeometry width="50" height="50" relative="1" as="geometry">
            <mxPoint x="344.75" y="1100" as="sourcePoint" />
            <mxPoint x="333.25" y="1054" as="targetPoint" />
            <Array as="points" />
          </mxGeometry>
        </mxCell>
        <mxCell id="WD1xmV7lFWjB1FPlFZ5V-171" value="" style="endArrow=none;html=1;rounded=0;entryX=0.66;entryY=1.017;entryDx=0;entryDy=0;exitX=1;exitY=0.5;exitDx=0;exitDy=0;entryPerimeter=0;" parent="1" source="WD1xmV7lFWjB1FPlFZ5V-52" edge="1">
          <mxGeometry width="50" height="50" relative="1" as="geometry">
            <mxPoint x="304" y="1153" as="sourcePoint" />
            <mxPoint x="292.5" y="1107" as="targetPoint" />
            <Array as="points" />
          </mxGeometry>
        </mxCell>
        <mxCell id="WD1xmV7lFWjB1FPlFZ5V-172" value="" style="endArrow=none;html=1;rounded=0;entryX=1;entryY=1;entryDx=0;entryDy=0;exitX=0.407;exitY=0.05;exitDx=0;exitDy=0;exitPerimeter=0;" parent="1" target="WD1xmV7lFWjB1FPlFZ5V-52" edge="1">
          <mxGeometry width="50" height="50" relative="1" as="geometry">
            <mxPoint x="304" y="1182" as="sourcePoint" />
            <mxPoint x="292.5" y="1136" as="targetPoint" />
            <Array as="points" />
          </mxGeometry>
        </mxCell>
        <mxCell id="WD1xmV7lFWjB1FPlFZ5V-173" value="" style="endArrow=none;html=1;rounded=0;entryX=0.66;entryY=1.017;entryDx=0;entryDy=0;exitX=0.407;exitY=0.05;exitDx=0;exitDy=0;entryPerimeter=0;exitPerimeter=0;" parent="1" edge="1">
          <mxGeometry width="50" height="50" relative="1" as="geometry">
            <mxPoint x="210.5" y="1182" as="sourcePoint" />
            <mxPoint x="199" y="1136" as="targetPoint" />
            <Array as="points" />
          </mxGeometry>
        </mxCell>
        <mxCell id="WD1xmV7lFWjB1FPlFZ5V-174" value="" style="endArrow=none;html=1;rounded=0;entryX=0.66;entryY=1.017;entryDx=0;entryDy=0;entryPerimeter=0;" parent="1" source="WD1xmV7lFWjB1FPlFZ5V-164" edge="1">
          <mxGeometry width="50" height="50" relative="1" as="geometry">
            <mxPoint x="163.5" y="1182" as="sourcePoint" />
            <mxPoint x="152" y="1136" as="targetPoint" />
            <Array as="points" />
          </mxGeometry>
        </mxCell>
        <mxCell id="WD1xmV7lFWjB1FPlFZ5V-176" value="" style="endArrow=none;html=1;rounded=0;entryX=0.66;entryY=1.017;entryDx=0;entryDy=0;exitX=0;exitY=0;exitDx=0;exitDy=0;entryPerimeter=0;" parent="1" source="WD1xmV7lFWjB1FPlFZ5V-52" edge="1">
          <mxGeometry width="50" height="50" relative="1" as="geometry">
            <mxPoint x="144.5" y="1127" as="sourcePoint" />
            <mxPoint x="133" y="1081" as="targetPoint" />
            <Array as="points" />
          </mxGeometry>
        </mxCell>
        <mxCell id="WD1xmV7lFWjB1FPlFZ5V-178" value="comments" style="ellipse;whiteSpace=wrap;html=1;align=center;" parent="1" vertex="1">
          <mxGeometry x="-485" y="434" width="140" height="34" as="geometry" />
        </mxCell>
        <mxCell id="WD1xmV7lFWjB1FPlFZ5V-179" value="booking_id" style="ellipse;whiteSpace=wrap;html=1;align=center;" parent="1" vertex="1">
          <mxGeometry x="-151" y="505" width="140" height="34" as="geometry" />
        </mxCell>
        <mxCell id="WD1xmV7lFWjB1FPlFZ5V-180" value="feedback_id" style="ellipse;whiteSpace=wrap;html=1;align=center;" parent="1" vertex="1">
          <mxGeometry x="-410" y="386" width="140" height="34" as="geometry" />
        </mxCell>
        <mxCell id="WD1xmV7lFWjB1FPlFZ5V-187" value="" style="endArrow=none;html=1;rounded=0;entryX=0.977;entryY=0.282;entryDx=0;entryDy=0;entryPerimeter=0;exitX=0;exitY=0.5;exitDx=0;exitDy=0;" parent="1" source="WD1xmV7lFWjB1FPlFZ5V-46" edge="1">
          <mxGeometry width="50" height="50" relative="1" as="geometry">
            <mxPoint x="123" y="427" as="sourcePoint" />
            <mxPoint x="98" y="474" as="targetPoint" />
            <Array as="points" />
          </mxGeometry>
        </mxCell>
        <mxCell id="WD1xmV7lFWjB1FPlFZ5V-188" value="" style="endArrow=none;html=1;rounded=0;entryX=0.117;entryY=-0.042;entryDx=0;entryDy=0;exitX=0;exitY=0;exitDx=0;exitDy=0;entryPerimeter=0;" parent="1" target="WD1xmV7lFWjB1FPlFZ5V-46" edge="1">
          <mxGeometry width="50" height="50" relative="1" as="geometry">
            <mxPoint x="114" y="394" as="sourcePoint" />
            <mxPoint x="89" y="441" as="targetPoint" />
            <Array as="points" />
          </mxGeometry>
        </mxCell>
        <mxCell id="AWkDCnoKy28CdMHfQhq1-2" value="made for" style="shape=rhombus;perimeter=rhombusPerimeter;whiteSpace=wrap;html=1;align=center;" vertex="1" parent="1">
          <mxGeometry x="432" y="-296" width="92" height="50" as="geometry" />
        </mxCell>
        <mxCell id="AWkDCnoKy28CdMHfQhq1-3" value="" style="endArrow=none;html=1;rounded=0;exitX=0.5;exitY=0;exitDx=0;exitDy=0;" edge="1" parent="1">
          <mxGeometry width="50" height="50" relative="1" as="geometry">
            <mxPoint x="477.5" y="-296" as="sourcePoint" />
            <mxPoint x="389" y="-408" as="targetPoint" />
          </mxGeometry>
        </mxCell>
        <mxCell id="AWkDCnoKy28CdMHfQhq1-4" value="" style="endArrow=none;html=1;rounded=0;entryX=0.5;entryY=1;entryDx=0;entryDy=0;exitX=1;exitY=0;exitDx=0;exitDy=0;" edge="1" parent="1" source="WD1xmV7lFWjB1FPlFZ5V-3" target="AWkDCnoKy28CdMHfQhq1-2">
          <mxGeometry width="50" height="50" relative="1" as="geometry">
            <mxPoint x="327" y="123" as="sourcePoint" />
            <mxPoint x="407" y="-193" as="targetPoint" />
          </mxGeometry>
        </mxCell>
        <mxCell id="AWkDCnoKy28CdMHfQhq1-5" value="1" style="text;html=1;align=center;verticalAlign=middle;whiteSpace=wrap;rounded=0;rotation=-60;" vertex="1" parent="1">
          <mxGeometry x="334.5" y="-30" width="60" height="30" as="geometry" />
        </mxCell>
        <mxCell id="AWkDCnoKy28CdMHfQhq1-6" value="1" style="text;html=1;align=center;verticalAlign=middle;whiteSpace=wrap;rounded=0;rotation=-105;" vertex="1" parent="1">
          <mxGeometry x="412" y="-341.5" width="60" height="30" as="geometry" />
        </mxCell>
        <mxCell id="AWkDCnoKy28CdMHfQhq1-10" value="includes service" style="shape=rhombus;perimeter=rhombusPerimeter;whiteSpace=wrap;html=1;align=center;" vertex="1" parent="1">
          <mxGeometry x="-145" y="144" width="117" height="59" as="geometry" />
        </mxCell>
        <mxCell id="AWkDCnoKy28CdMHfQhq1-11" value="" style="endArrow=none;html=1;rounded=0;entryX=0;entryY=1;entryDx=0;entryDy=0;exitX=0.5;exitY=0;exitDx=0;exitDy=0;" edge="1" parent="1" source="AWkDCnoKy28CdMHfQhq1-10" target="WD1xmV7lFWjB1FPlFZ5V-47">
          <mxGeometry width="50" height="50" relative="1" as="geometry">
            <mxPoint x="-88" y="239" as="sourcePoint" />
            <mxPoint x="82" y="-223" as="targetPoint" />
          </mxGeometry>
        </mxCell>
        <mxCell id="AWkDCnoKy28CdMHfQhq1-12" value="" style="endArrow=none;html=1;rounded=0;entryX=0.5;entryY=1;entryDx=0;entryDy=0;exitX=0.68;exitY=-0.008;exitDx=0;exitDy=0;exitPerimeter=0;" edge="1" parent="1" target="AWkDCnoKy28CdMHfQhq1-10">
          <mxGeometry width="50" height="50" relative="1" as="geometry">
            <mxPoint x="184.75" y="429.68000000000006" as="sourcePoint" />
            <mxPoint x="-92.75" y="206" as="targetPoint" />
          </mxGeometry>
        </mxCell>
        <mxCell id="AWkDCnoKy28CdMHfQhq1-13" value="M" style="text;html=1;align=center;verticalAlign=middle;whiteSpace=wrap;rounded=0;rotation=45;" vertex="1" parent="1">
          <mxGeometry x="22" y="299" width="60" height="30" as="geometry" />
        </mxCell>
        <mxCell id="AWkDCnoKy28CdMHfQhq1-14" value="N" style="text;html=1;align=center;verticalAlign=middle;whiteSpace=wrap;rounded=0;rotation=-50;" vertex="1" parent="1">
          <mxGeometry x="-22" y="-27" width="60" height="30" as="geometry" />
        </mxCell>
        <mxCell id="AWkDCnoKy28CdMHfQhq1-16" value="includes transfer" style="shape=rhombus;perimeter=rhombusPerimeter;whiteSpace=wrap;html=1;align=center;" vertex="1" parent="1">
          <mxGeometry x="417" y="90" width="133" height="50" as="geometry" />
        </mxCell>
        <mxCell id="AWkDCnoKy28CdMHfQhq1-17" value="" style="endArrow=none;html=1;rounded=0;entryX=0;entryY=0.5;entryDx=0;entryDy=0;exitX=0.5;exitY=0;exitDx=0;exitDy=0;" edge="1" parent="1" source="AWkDCnoKy28CdMHfQhq1-16" target="WD1xmV7lFWjB1FPlFZ5V-45">
          <mxGeometry width="50" height="50" relative="1" as="geometry">
            <mxPoint x="402" y="129" as="sourcePoint" />
            <mxPoint x="584" y="-247" as="targetPoint" />
            <Array as="points">
              <mxPoint x="444" y="-111" />
            </Array>
          </mxGeometry>
        </mxCell>
        <mxCell id="AWkDCnoKy28CdMHfQhq1-18" value="" style="endArrow=none;html=1;rounded=0;entryX=0.5;entryY=1;entryDx=0;entryDy=0;exitX=0.75;exitY=1;exitDx=0;exitDy=0;" edge="1" parent="1" source="WD1xmV7lFWjB1FPlFZ5V-3" target="AWkDCnoKy28CdMHfQhq1-16">
          <mxGeometry width="50" height="50" relative="1" as="geometry">
            <mxPoint x="322" y="312" as="sourcePoint" />
            <mxPoint x="479" y="236" as="targetPoint" />
            <Array as="points">
              <mxPoint x="432" y="347" />
            </Array>
          </mxGeometry>
        </mxCell>
        <mxCell id="AWkDCnoKy28CdMHfQhq1-19" value="" style="endArrow=none;html=1;rounded=0;exitX=0.5;exitY=0;exitDx=0;exitDy=0;" edge="1" parent="1" source="WD1xmV7lFWjB1FPlFZ5V-7">
          <mxGeometry width="50" height="50" relative="1" as="geometry">
            <mxPoint x="195.53" y="267" as="sourcePoint" />
            <mxPoint x="200" y="220" as="targetPoint" />
            <Array as="points">
              <mxPoint x="196" y="223" />
            </Array>
          </mxGeometry>
        </mxCell>
        <mxCell id="AWkDCnoKy28CdMHfQhq1-20" value="M" style="text;html=1;align=center;verticalAlign=middle;whiteSpace=wrap;rounded=0;rotation=-90;" vertex="1" parent="1">
          <mxGeometry x="418.5" y="214" width="60" height="30" as="geometry" />
        </mxCell>
        <mxCell id="AWkDCnoKy28CdMHfQhq1-21" value="1" style="text;html=1;align=center;verticalAlign=middle;whiteSpace=wrap;rounded=0;rotation=-30;" vertex="1" parent="1">
          <mxGeometry x="467" y="-172" width="60" height="30" as="geometry" />
        </mxCell>
        <mxCell id="AWkDCnoKy28CdMHfQhq1-22" value="operates in" style="shape=rhombus;perimeter=rhombusPerimeter;whiteSpace=wrap;html=1;align=center;" vertex="1" parent="1">
          <mxGeometry x="236" y="-227" width="92" height="50" as="geometry" />
        </mxCell>
        <mxCell id="AWkDCnoKy28CdMHfQhq1-23" value="" style="endArrow=none;html=1;rounded=0;entryX=0;entryY=0.25;entryDx=0;entryDy=0;exitX=1;exitY=0.5;exitDx=0;exitDy=0;" edge="1" parent="1" source="AWkDCnoKy28CdMHfQhq1-22" target="WD1xmV7lFWjB1FPlFZ5V-45">
          <mxGeometry width="50" height="50" relative="1" as="geometry">
            <mxPoint x="417.5" y="115" as="sourcePoint" />
            <mxPoint x="599.5" y="-261" as="targetPoint" />
            <Array as="points">
              <mxPoint x="440" y="-215" />
            </Array>
          </mxGeometry>
        </mxCell>
        <mxCell id="AWkDCnoKy28CdMHfQhq1-24" value="" style="endArrow=none;html=1;rounded=0;entryX=0;entryY=0.5;entryDx=0;entryDy=0;" edge="1" parent="1" target="AWkDCnoKy28CdMHfQhq1-22">
          <mxGeometry width="50" height="50" relative="1" as="geometry">
            <mxPoint x="233" y="-43" as="sourcePoint" />
            <mxPoint x="349.5" y="-207" as="targetPoint" />
            <Array as="points">
              <mxPoint x="236" y="-126" />
            </Array>
          </mxGeometry>
        </mxCell>
        <mxCell id="AWkDCnoKy28CdMHfQhq1-26" value="1" style="text;html=1;align=center;verticalAlign=middle;whiteSpace=wrap;rounded=0;rotation=-15;" vertex="1" parent="1">
          <mxGeometry x="522" y="-263" width="60" height="30" as="geometry" />
        </mxCell>
        <mxCell id="AWkDCnoKy28CdMHfQhq1-27" value="M" style="text;html=1;align=center;verticalAlign=middle;whiteSpace=wrap;rounded=0;rotation=-90;" vertex="1" parent="1">
          <mxGeometry x="196" y="-167" width="60" height="30" as="geometry" />
        </mxCell>
        <mxCell id="AWkDCnoKy28CdMHfQhq1-28" value="includes accomodation" style="shape=rhombus;perimeter=rhombusPerimeter;whiteSpace=wrap;html=1;align=center;" vertex="1" parent="1">
          <mxGeometry x="372.5" y="379" width="164.5" height="50" as="geometry" />
        </mxCell>
        <mxCell id="AWkDCnoKy28CdMHfQhq1-29" value="" style="endArrow=none;html=1;rounded=0;exitX=0.508;exitY=1;exitDx=0;exitDy=0;entryX=0;entryY=0;entryDx=0;entryDy=0;exitPerimeter=0;" edge="1" parent="1" source="AWkDCnoKy28CdMHfQhq1-28" target="WD1xmV7lFWjB1FPlFZ5V-43">
          <mxGeometry width="50" height="50" relative="1" as="geometry">
            <mxPoint x="439" y="429" as="sourcePoint" />
            <mxPoint x="718" y="596" as="targetPoint" />
            <Array as="points">
              <mxPoint x="616" y="482" />
            </Array>
          </mxGeometry>
        </mxCell>
        <mxCell id="AWkDCnoKy28CdMHfQhq1-30" value="" style="endArrow=none;html=1;rounded=0;exitX=0.59;exitY=0.983;exitDx=0;exitDy=0;entryX=0.5;entryY=0;entryDx=0;entryDy=0;exitPerimeter=0;" edge="1" parent="1" source="WD1xmV7lFWjB1FPlFZ5V-3" target="AWkDCnoKy28CdMHfQhq1-28">
          <mxGeometry width="50" height="50" relative="1" as="geometry">
            <mxPoint x="254" y="342" as="sourcePoint" />
            <mxPoint x="453" y="563" as="targetPoint" />
            <Array as="points" />
          </mxGeometry>
        </mxCell>
        <mxCell id="AWkDCnoKy28CdMHfQhq1-31" value="includes accomodation" style="shape=rhombus;perimeter=rhombusPerimeter;whiteSpace=wrap;html=1;align=center;" vertex="1" parent="1">
          <mxGeometry x="908" y="481" width="164.5" height="50" as="geometry" />
        </mxCell>
        <mxCell id="AWkDCnoKy28CdMHfQhq1-32" value="" style="endArrow=none;html=1;rounded=0;entryX=0.5;entryY=0;entryDx=0;entryDy=0;exitX=1;exitY=0.5;exitDx=0;exitDy=0;" edge="1" parent="1" target="AWkDCnoKy28CdMHfQhq1-31">
          <mxGeometry width="50" height="50" relative="1" as="geometry">
            <mxPoint x="268" y="-3" as="sourcePoint" />
            <mxPoint x="988.25" y="498.5" as="targetPoint" />
            <Array as="points">
              <mxPoint x="1002" y="208.5" />
            </Array>
          </mxGeometry>
        </mxCell>
        <mxCell id="AWkDCnoKy28CdMHfQhq1-33" value="M" style="text;html=1;align=center;verticalAlign=middle;whiteSpace=wrap;rounded=0;rotation=-150;" vertex="1" parent="1">
          <mxGeometry x="342" y="316" width="60" height="30" as="geometry" />
        </mxCell>
        <mxCell id="AWkDCnoKy28CdMHfQhq1-34" value="1" style="text;html=1;align=center;verticalAlign=middle;whiteSpace=wrap;rounded=0;rotation=-90;" vertex="1" parent="1">
          <mxGeometry x="592.25" y="597" width="60" height="30" as="geometry" />
        </mxCell>
        <mxCell id="AWkDCnoKy28CdMHfQhq1-35" value="" style="endArrow=none;html=1;rounded=0;exitX=0.5;exitY=1;exitDx=0;exitDy=0;entryX=1;entryY=0.75;entryDx=0;entryDy=0;" edge="1" parent="1" source="AWkDCnoKy28CdMHfQhq1-31" target="WD1xmV7lFWjB1FPlFZ5V-43">
          <mxGeometry width="50" height="50" relative="1" as="geometry">
            <mxPoint x="860" y="533" as="sourcePoint" />
            <mxPoint x="1042" y="754" as="targetPoint" />
            <Array as="points">
              <mxPoint x="1038" y="629" />
            </Array>
          </mxGeometry>
        </mxCell>
        <mxCell id="AWkDCnoKy28CdMHfQhq1-36" value="1" style="text;html=1;align=center;verticalAlign=middle;whiteSpace=wrap;rounded=0;rotation=-90;" vertex="1" parent="1">
          <mxGeometry x="957" y="255" width="60" height="30" as="geometry" />
        </mxCell>
        <mxCell id="AWkDCnoKy28CdMHfQhq1-38" value="M" style="text;html=1;align=center;verticalAlign=middle;whiteSpace=wrap;rounded=0;rotation=-15;" vertex="1" parent="1">
          <mxGeometry x="940" y="617.5" width="60" height="30" as="geometry" />
        </mxCell>
        <mxCell id="AWkDCnoKy28CdMHfQhq1-40" value="includes flights" style="shape=rhombus;perimeter=rhombusPerimeter;whiteSpace=wrap;html=1;align=center;rotation=-55;" vertex="1" parent="1">
          <mxGeometry x="305" y="71" width="121" height="40" as="geometry" />
        </mxCell>
        <mxCell id="AWkDCnoKy28CdMHfQhq1-41" value="" style="endArrow=none;html=1;rounded=0;exitX=1;exitY=0.5;exitDx=0;exitDy=0;entryX=0.15;entryY=1.017;entryDx=0;entryDy=0;entryPerimeter=0;" edge="1" parent="1" source="AWkDCnoKy28CdMHfQhq1-40" target="WD1xmV7lFWjB1FPlFZ5V-44">
          <mxGeometry width="50" height="50" relative="1" as="geometry">
            <mxPoint x="405.0013743992384" y="54.761301320516004" as="sourcePoint" />
            <mxPoint x="598" y="-2" as="targetPoint" />
            <Array as="points">
              <mxPoint x="486.8" y="43.32" />
            </Array>
          </mxGeometry>
        </mxCell>
        <mxCell id="AWkDCnoKy28CdMHfQhq1-44" value="" style="endArrow=none;html=1;rounded=0;exitX=1;exitY=0.25;exitDx=0;exitDy=0;" edge="1" parent="1" source="WD1xmV7lFWjB1FPlFZ5V-3">
          <mxGeometry width="50" height="50" relative="1" as="geometry">
            <mxPoint x="266" y="239" as="sourcePoint" />
            <mxPoint x="332" y="140" as="targetPoint" />
          </mxGeometry>
        </mxCell>
        <mxCell id="AWkDCnoKy28CdMHfQhq1-46" value="M" style="text;html=1;align=center;verticalAlign=middle;whiteSpace=wrap;rounded=0;rotation=-30;" vertex="1" parent="1">
          <mxGeometry x="292.5" y="140" width="35.5" height="21.5" as="geometry" />
        </mxCell>
        <mxCell id="AWkDCnoKy28CdMHfQhq1-48" value="1" style="text;html=1;align=center;verticalAlign=middle;whiteSpace=wrap;rounded=0;rotation=0;" vertex="1" parent="1">
          <mxGeometry x="432" y="22" width="35.5" height="21.5" as="geometry" />
        </mxCell>
        <mxCell id="AWkDCnoKy28CdMHfQhq1-49" value="has a destination" style="shape=rhombus;perimeter=rhombusPerimeter;whiteSpace=wrap;html=1;align=center;rotation=0;" vertex="1" parent="1">
          <mxGeometry x="305" y="-172" width="121" height="40" as="geometry" />
        </mxCell>
        <mxCell id="AWkDCnoKy28CdMHfQhq1-50" value="" style="endArrow=none;html=1;rounded=0;entryX=0;entryY=0.5;entryDx=0;entryDy=0;" edge="1" parent="1">
          <mxGeometry width="50" height="50" relative="1" as="geometry">
            <mxPoint x="612" y="-49" as="sourcePoint" />
            <mxPoint x="426" y="-153" as="targetPoint" />
            <Array as="points">
              <mxPoint x="538" y="-141" />
            </Array>
          </mxGeometry>
        </mxCell>
        <mxCell id="AWkDCnoKy28CdMHfQhq1-51" value="" style="endArrow=none;html=1;rounded=0;exitX=0;exitY=0.5;exitDx=0;exitDy=0;entryX=0.5;entryY=0;entryDx=0;entryDy=0;" edge="1" parent="1" source="AWkDCnoKy28CdMHfQhq1-49" target="WD1xmV7lFWjB1FPlFZ5V-41">
          <mxGeometry width="50" height="50" relative="1" as="geometry">
            <mxPoint x="301" y="-145" as="sourcePoint" />
            <mxPoint x="221" y="-44" as="targetPoint" />
            <Array as="points">
              <mxPoint x="219" y="-120" />
            </Array>
          </mxGeometry>
        </mxCell>
        <mxCell id="AWkDCnoKy28CdMHfQhq1-52" value="M" style="text;html=1;align=center;verticalAlign=middle;whiteSpace=wrap;rounded=0;rotation=45;" vertex="1" parent="1">
          <mxGeometry x="544" y="-125" width="46.5" height="20" as="geometry" />
        </mxCell>
        <mxCell id="AWkDCnoKy28CdMHfQhq1-53" value="1" style="text;html=1;align=center;verticalAlign=middle;whiteSpace=wrap;rounded=0;rotation=-30;" vertex="1" parent="1">
          <mxGeometry x="256" y="-159" width="46.5" height="20" as="geometry" />
        </mxCell>
        <mxCell id="AWkDCnoKy28CdMHfQhq1-54" value="made by" style="shape=rhombus;perimeter=rhombusPerimeter;whiteSpace=wrap;html=1;align=center;" vertex="1" parent="1">
          <mxGeometry x="493.25" y="339" width="112.5" height="35" as="geometry" />
        </mxCell>
        <mxCell id="AWkDCnoKy28CdMHfQhq1-55" value="" style="endArrow=none;html=1;rounded=0;entryX=0;entryY=0.5;entryDx=0;entryDy=0;" edge="1" parent="1" target="AWkDCnoKy28CdMHfQhq1-54">
          <mxGeometry width="50" height="50" relative="1" as="geometry">
            <mxPoint x="235" y="222" as="sourcePoint" />
            <mxPoint x="390" y="299" as="targetPoint" />
            <Array as="points">
              <mxPoint x="322" y="371" />
            </Array>
          </mxGeometry>
        </mxCell>
        <mxCell id="AWkDCnoKy28CdMHfQhq1-56" value="" style="endArrow=none;html=1;rounded=0;entryX=0.5;entryY=1;entryDx=0;entryDy=0;exitX=1;exitY=0.5;exitDx=0;exitDy=0;" edge="1" parent="1" source="AWkDCnoKy28CdMHfQhq1-54">
          <mxGeometry width="50" height="50" relative="1" as="geometry">
            <mxPoint x="614" y="354" as="sourcePoint" />
            <mxPoint x="639" y="232" as="targetPoint" />
            <Array as="points" />
          </mxGeometry>
        </mxCell>
        <mxCell id="AWkDCnoKy28CdMHfQhq1-57" value="M" style="text;html=1;align=center;verticalAlign=middle;whiteSpace=wrap;rounded=0;rotation=-120;" vertex="1" parent="1">
          <mxGeometry x="257" y="311" width="60" height="30" as="geometry" />
        </mxCell>
        <mxCell id="AWkDCnoKy28CdMHfQhq1-58" value="1" style="text;html=1;align=center;verticalAlign=middle;whiteSpace=wrap;rounded=0;rotation=-60;" vertex="1" parent="1">
          <mxGeometry x="594" y="302" width="35" height="17" as="geometry" />
        </mxCell>
        <mxCell id="AWkDCnoKy28CdMHfQhq1-61" value="has role" style="shape=rhombus;perimeter=rhombusPerimeter;whiteSpace=wrap;html=1;align=center;rotation=-75;" vertex="1" parent="1">
          <mxGeometry x="573.5" y="386" width="97.5" height="32" as="geometry" />
        </mxCell>
        <mxCell id="AWkDCnoKy28CdMHfQhq1-62" value="" style="endArrow=none;html=1;rounded=0;entryX=0.617;entryY=1;entryDx=0;entryDy=0;exitX=1;exitY=0.5;exitDx=0;exitDy=0;entryPerimeter=0;" edge="1" parent="1" source="AWkDCnoKy28CdMHfQhq1-61" target="WD1xmV7lFWjB1FPlFZ5V-23">
          <mxGeometry width="50" height="50" relative="1" as="geometry">
            <mxPoint x="647" y="366" as="sourcePoint" />
            <mxPoint x="642" y="304" as="targetPoint" />
            <Array as="points" />
          </mxGeometry>
        </mxCell>
        <mxCell id="AWkDCnoKy28CdMHfQhq1-63" value="" style="endArrow=none;html=1;rounded=0;entryX=0;entryY=0.5;entryDx=0;entryDy=0;exitX=1;exitY=0;exitDx=0;exitDy=0;" edge="1" parent="1" source="WD1xmV7lFWjB1FPlFZ5V-40" target="AWkDCnoKy28CdMHfQhq1-61">
          <mxGeometry width="50" height="50" relative="1" as="geometry">
            <mxPoint x="552" y="554" as="sourcePoint" />
            <mxPoint x="565" y="431" as="targetPoint" />
            <Array as="points" />
          </mxGeometry>
        </mxCell>
        <mxCell id="AWkDCnoKy28CdMHfQhq1-64" value="1" style="text;html=1;align=center;verticalAlign=middle;whiteSpace=wrap;rounded=0;rotation=-30;" vertex="1" parent="1">
          <mxGeometry x="490" y="472" width="60" height="30" as="geometry" />
        </mxCell>
        <mxCell id="AWkDCnoKy28CdMHfQhq1-65" value="M" style="text;html=1;align=center;verticalAlign=middle;whiteSpace=wrap;rounded=0;rotation=-75;" vertex="1" parent="1">
          <mxGeometry x="617" y="311" width="32" height="17" as="geometry" />
        </mxCell>
        <mxCell id="AWkDCnoKy28CdMHfQhq1-67" value="belongs to" style="shape=rhombus;perimeter=rhombusPerimeter;whiteSpace=wrap;html=1;align=center;rotation=0;" vertex="1" parent="1">
          <mxGeometry x="982" y="787" width="97.5" height="32" as="geometry" />
        </mxCell>
        <mxCell id="AWkDCnoKy28CdMHfQhq1-68" value="" style="endArrow=none;html=1;rounded=0;exitX=0.5;exitY=1;exitDx=0;exitDy=0;entryX=1;entryY=0.5;entryDx=0;entryDy=0;" edge="1" parent="1" source="AWkDCnoKy28CdMHfQhq1-67" target="WD1xmV7lFWjB1FPlFZ5V-42">
          <mxGeometry width="50" height="50" relative="1" as="geometry">
            <mxPoint x="831" y="827" as="sourcePoint" />
            <mxPoint x="1013" y="1048" as="targetPoint" />
            <Array as="points">
              <mxPoint x="991" y="880" />
            </Array>
          </mxGeometry>
        </mxCell>
        <mxCell id="AWkDCnoKy28CdMHfQhq1-69" value="" style="endArrow=none;html=1;rounded=0;entryX=0.5;entryY=0;entryDx=0;entryDy=0;exitX=1;exitY=0.75;exitDx=0;exitDy=0;" edge="1" parent="1" source="WD1xmV7lFWjB1FPlFZ5V-23" target="AWkDCnoKy28CdMHfQhq1-67">
          <mxGeometry width="50" height="50" relative="1" as="geometry">
            <mxPoint x="854" y="277" as="sourcePoint" />
            <mxPoint x="860" y="787" as="targetPoint" />
            <Array as="points">
              <mxPoint x="1180" y="256" />
            </Array>
          </mxGeometry>
        </mxCell>
        <mxCell id="AWkDCnoKy28CdMHfQhq1-70" value="1" style="text;html=1;align=center;verticalAlign=middle;whiteSpace=wrap;rounded=0;rotation=-15;" vertex="1" parent="1">
          <mxGeometry x="925" y="865" width="60" height="30" as="geometry" />
        </mxCell>
        <mxCell id="AWkDCnoKy28CdMHfQhq1-71" value="1" style="text;html=1;align=center;verticalAlign=middle;whiteSpace=wrap;rounded=0;rotation=-70;" vertex="1" parent="1">
          <mxGeometry x="1096" y="399" width="60" height="30" as="geometry" />
        </mxCell>
        <mxCell id="AWkDCnoKy28CdMHfQhq1-72" value="uses" style="shape=rhombus;perimeter=rhombusPerimeter;whiteSpace=wrap;html=1;align=center;rotation=-30;" vertex="1" parent="1">
          <mxGeometry x="417" y="626.04" width="93.32" height="30.92" as="geometry" />
        </mxCell>
        <mxCell id="AWkDCnoKy28CdMHfQhq1-73" value="" style="endArrow=none;html=1;rounded=0;entryX=0;entryY=1;entryDx=0;entryDy=0;" edge="1" parent="1" target="WD1xmV7lFWjB1FPlFZ5V-50">
          <mxGeometry width="50" height="50" relative="1" as="geometry">
            <mxPoint x="505" y="618" as="sourcePoint" />
            <mxPoint x="686" y="523" as="targetPoint" />
            <Array as="points" />
          </mxGeometry>
        </mxCell>
        <mxCell id="AWkDCnoKy28CdMHfQhq1-74" value="" style="endArrow=none;html=1;rounded=0;entryX=0;entryY=0.5;entryDx=0;entryDy=0;exitX=1;exitY=0.75;exitDx=0;exitDy=0;" edge="1" parent="1" source="WD1xmV7lFWjB1FPlFZ5V-48" target="AWkDCnoKy28CdMHfQhq1-72">
          <mxGeometry width="50" height="50" relative="1" as="geometry">
            <mxPoint x="290" y="719.5" as="sourcePoint" />
            <mxPoint x="483" y="616.5" as="targetPoint" />
            <Array as="points" />
          </mxGeometry>
        </mxCell>
        <mxCell id="AWkDCnoKy28CdMHfQhq1-75" value="M" style="text;html=1;align=center;verticalAlign=middle;whiteSpace=wrap;rounded=0;rotation=-30;" vertex="1" parent="1">
          <mxGeometry x="651" y="501" width="60" height="30" as="geometry" />
        </mxCell>
        <mxCell id="AWkDCnoKy28CdMHfQhq1-76" value="M" style="text;html=1;align=center;verticalAlign=middle;whiteSpace=wrap;rounded=0;rotation=0;" vertex="1" parent="1">
          <mxGeometry x="371" y="643" width="46" height="26" as="geometry" />
        </mxCell>
        <mxCell id="AWkDCnoKy28CdMHfQhq1-77" value="applied to" style="shape=rhombus;perimeter=rhombusPerimeter;whiteSpace=wrap;html=1;align=center;rotation=-65;" vertex="1" parent="1">
          <mxGeometry x="219.75" y="467" width="124.5" height="38" as="geometry" />
        </mxCell>
        <mxCell id="AWkDCnoKy28CdMHfQhq1-78" value="" style="endArrow=none;html=1;rounded=0;exitX=1;exitY=0.5;exitDx=0;exitDy=0;entryX=0.5;entryY=1;entryDx=0;entryDy=0;" edge="1" parent="1" source="AWkDCnoKy28CdMHfQhq1-77" target="WD1xmV7lFWjB1FPlFZ5V-3">
          <mxGeometry width="50" height="50" relative="1" as="geometry">
            <mxPoint x="157" y="487" as="sourcePoint" />
            <mxPoint x="265.5" y="358" as="targetPoint" />
            <Array as="points" />
          </mxGeometry>
        </mxCell>
        <mxCell id="AWkDCnoKy28CdMHfQhq1-79" value="" style="endArrow=none;html=1;rounded=0;entryX=1;entryY=0;entryDx=0;entryDy=0;exitX=0;exitY=0.5;exitDx=0;exitDy=0;" edge="1" parent="1" source="AWkDCnoKy28CdMHfQhq1-77" target="WD1xmV7lFWjB1FPlFZ5V-48">
          <mxGeometry width="50" height="50" relative="1" as="geometry">
            <mxPoint x="319" y="778" as="sourcePoint" />
            <mxPoint x="252" y="600" as="targetPoint" />
            <Array as="points" />
          </mxGeometry>
        </mxCell>
        <mxCell id="AWkDCnoKy28CdMHfQhq1-80" value="1" style="text;html=1;align=center;verticalAlign=middle;whiteSpace=wrap;rounded=0;rotation=-105;" vertex="1" parent="1">
          <mxGeometry x="245" y="333" width="45" height="22" as="geometry" />
        </mxCell>
        <mxCell id="AWkDCnoKy28CdMHfQhq1-81" value="1" style="text;html=1;align=center;verticalAlign=middle;whiteSpace=wrap;rounded=0;rotation=-75;" vertex="1" parent="1">
          <mxGeometry x="224" y="562.5" width="33" height="15" as="geometry" />
        </mxCell>
        <mxCell id="AWkDCnoKy28CdMHfQhq1-82" value="feedback" style="whiteSpace=wrap;html=1;align=center;" vertex="1" parent="1">
          <mxGeometry x="-280" y="449" width="100" height="40" as="geometry" />
        </mxCell>
        <mxCell id="AWkDCnoKy28CdMHfQhq1-83" value="rating" style="ellipse;whiteSpace=wrap;html=1;align=center;" vertex="1" parent="1">
          <mxGeometry x="-291" y="539" width="140" height="34" as="geometry" />
        </mxCell>
        <mxCell id="AWkDCnoKy28CdMHfQhq1-84" value="" style="endArrow=none;html=1;rounded=0;exitX=0.25;exitY=0;exitDx=0;exitDy=0;" edge="1" parent="1" source="AWkDCnoKy28CdMHfQhq1-82">
          <mxGeometry width="50" height="50" relative="1" as="geometry">
            <mxPoint x="-205" y="478.8400000000001" as="sourcePoint" />
            <mxPoint x="-288" y="415.16" as="targetPoint" />
          </mxGeometry>
        </mxCell>
        <mxCell id="AWkDCnoKy28CdMHfQhq1-85" value="" style="endArrow=none;html=1;rounded=0;exitX=0.5;exitY=0;exitDx=0;exitDy=0;" edge="1" parent="1" source="AWkDCnoKy28CdMHfQhq1-83">
          <mxGeometry width="50" height="50" relative="1" as="geometry">
            <mxPoint x="-198" y="522.84" as="sourcePoint" />
            <mxPoint x="-231" y="489" as="targetPoint" />
          </mxGeometry>
        </mxCell>
        <mxCell id="AWkDCnoKy28CdMHfQhq1-86" value="" style="endArrow=none;html=1;rounded=0;entryX=1;entryY=1;entryDx=0;entryDy=0;" edge="1" parent="1" target="WD1xmV7lFWjB1FPlFZ5V-178">
          <mxGeometry width="50" height="50" relative="1" as="geometry">
            <mxPoint x="-281" y="470" as="sourcePoint" />
            <mxPoint x="-349" y="459" as="targetPoint" />
          </mxGeometry>
        </mxCell>
        <mxCell id="AWkDCnoKy28CdMHfQhq1-87" value="" style="endArrow=none;html=1;rounded=0;entryX=1;entryY=1;entryDx=0;entryDy=0;exitX=0.286;exitY=0.108;exitDx=0;exitDy=0;exitPerimeter=0;" edge="1" parent="1" source="WD1xmV7lFWjB1FPlFZ5V-179">
          <mxGeometry width="50" height="50" relative="1" as="geometry">
            <mxPoint x="-95" y="486" as="sourcePoint" />
            <mxPoint x="-180" y="479" as="targetPoint" />
          </mxGeometry>
        </mxCell>
        <mxCell id="AWkDCnoKy28CdMHfQhq1-88" value="given for" style="shape=rhombus;perimeter=rhombusPerimeter;whiteSpace=wrap;html=1;align=center;rotation=-30;" vertex="1" parent="1">
          <mxGeometry x="-202" y="288" width="124.5" height="38" as="geometry" />
        </mxCell>
        <mxCell id="AWkDCnoKy28CdMHfQhq1-89" value="" style="endArrow=none;html=1;rounded=0;exitX=0;exitY=0.5;exitDx=0;exitDy=0;entryX=1;entryY=0.5;entryDx=0;entryDy=0;" edge="1" parent="1" source="WD1xmV7lFWjB1FPlFZ5V-3" target="AWkDCnoKy28CdMHfQhq1-88">
          <mxGeometry width="50" height="50" relative="1" as="geometry">
            <mxPoint x="6" y="201" as="sourcePoint" />
            <mxPoint x="-80.75" y="282" as="targetPoint" />
          </mxGeometry>
        </mxCell>
        <mxCell id="AWkDCnoKy28CdMHfQhq1-90" value="" style="endArrow=none;html=1;rounded=0;exitX=0;exitY=0.5;exitDx=0;exitDy=0;" edge="1" parent="1" source="AWkDCnoKy28CdMHfQhq1-88">
          <mxGeometry width="50" height="50" relative="1" as="geometry">
            <mxPoint x="6" y="373" as="sourcePoint" />
            <mxPoint x="-214" y="446" as="targetPoint" />
          </mxGeometry>
        </mxCell>
        <mxCell id="AWkDCnoKy28CdMHfQhq1-91" value="1" style="text;html=1;align=center;verticalAlign=middle;whiteSpace=wrap;rounded=0;rotation=-75;" vertex="1" parent="1">
          <mxGeometry x="-230" y="366" width="45" height="22" as="geometry" />
        </mxCell>
        <mxCell id="AWkDCnoKy28CdMHfQhq1-92" value="1" style="text;html=1;align=center;verticalAlign=middle;whiteSpace=wrap;rounded=0;rotation=-15;" vertex="1" parent="1">
          <mxGeometry x="-14.5" y="232" width="45" height="22" as="geometry" />
        </mxCell>
      </root>
    </mxGraphModel>
  </diagram>
</mxfile>
